<?xml version="1.0" encoding="utf-8"?>
<!-- Generator: Adobe Illustrator 15.0.2, SVG Export Plug-In . SVG Version: 6.00 Build 0)  -->
<!DOCTYPE svg PUBLIC "-//W3C//DTD SVG 1.1//EN" "http://www.w3.org/Graphics/SVG/1.1/DTD/svg11.dtd">
<svg version="1.1" id="Layer_1" xmlns="http://www.w3.org/2000/svg" xmlns:xlink="http://www.w3.org/1999/xlink" x="0px" y="0px"
	 width="603.351px" height="101.315px" viewBox="0 0 603.351 101.315" enable-background="new 0 0 603.351 101.315"
	 xml:space="preserve">
<g>
	<path fill="#FFFFFF" d="M69.14,21.598c0.107,0.734-0.264,1.169-0.326,1.798c-3.181,2.003-5.228-2.216-6.2-4.486
		c-1.563,0.697-3.072-0.957-4.513-1.427c-5.236-1.712-12.11-1.756-19.067-1.533c-12.292,0.4-26.331,3.295-31.475,10.919
		c4.868-1.005,9.125-0.382,13.564,0.088c4.334,1.631,9.799,3.938,14.365,6.798c1.786,1.119,3.944,2.08,3.701,4.322
		c-2.723,2.308-3.797,0.04-5.737-1.392c-0.409-0.307-1.267-0.377-1.906-0.795c-1.931-1.26-3.808-2.419-6.22-3.496
		c-4.538-2.026-8.996-2.982-13.812-2.247c-3.44,0.523-6.274,2.169-8.655,1.987C2,32.063,0.017,31.113,0,29.343
		c-0.031-2.683,7.581-6.132,6.342-8.845c0.72-0.216,0.421-1.07,1.477-1.077C9.523,13.839,15.83,7.168,20.664,2.437
		c1.239-1.218,2.051-2.779,3.888-2.37c1.276,0.282,2.316,1.91,2.498,3.366c-4.885,3.481-7.41,8.442-10.845,12.831
		c11.75-3.435,30.704-5.252,42.995-1.497C63.58,16.102,66.026,18.269,69.14,21.598z"/>
</g>
<g>
	<path fill="#FFFFFF" d="M600.549,38.538c2.759,8.433,3.729,18.766,1.775,27.179c-0.768,2.508-2.362,5.7-3.144,7.897
		c-0.129,0.364,0.111,0.771,0.024,1.236c-0.217,1.173-1.552,3.219-2.585,4.795c-2.476,3.786-5.091,6.621-9.95,7.618
		c-0.613-0.555-1.545-0.776-1.484-2.031c-1.616,1.233-5.247,4.028-6.992,0.963c-0.084-0.833,1.746-1.736,2.046-0.865
		c0.572-0.218-0.312-0.544,0.188-0.828c5.519-2.875,11.643-8.6,13.912-15.946c0.355-0.188,0.323-0.925,0.815-0.429
		c-0.501-0.959,0.457-2.062,0.978-2.699c-0.631,0.271-0.394-2.062,0.576-2.072c-0.55-0.952,0.105-1.722,0.574-2.28
		c-0.011-0.575-0.549,0.502-0.42-0.403c1.17-2.068,0.001-3.419,1.329-5.799c-0.492-0.943-0.259-4.291,0.293-5.985
		c-0.865-2.87-0.966-6.27-2.043-9.444c-2.027-5.981-6.587-11.148-10.41-15.463c-0.827-0.13-1.171,0.221-1.849,0.244
		c-0.463-0.782-1.322-1.151-1.49-2.238c0.384-0.172,0.749-0.359,1.229-0.438c-0.684-1.112-1.46-2.119-2.531-2.837
		c0.155-0.458,0.424-0.814,0.384-1.451c3.693-0.923,4.457,2.008,7.274,2.948c1.98,2.72,4.554,4.31,6.735,6.878
		C598.379,30.128,599.167,34.305,600.549,38.538z"/>
</g>
<g>
	<path fill="#FFFFFF" d="M89.035,89.934c1.969,0.116,2.33,2.711,1.106,3.896c-3.23,1.293-5.079-0.989-7.274-2.948
		c-5.614-5.017-11.245-12.595-13.611-20.967c-1.099-3.888-1.101-8.707-0.871-12.765c0.576-2.15,0.668-6.981,1.044-9.712
		c0.136-0.981,0.826-2.138,0.965-3.316c0.51-4.17,2.362-9.111,4.29-12.457c0.464-0.809,1.442-1.343,1.814-2.097
		c0.28-0.572,0.076-1.377,0.375-1.863c0.524-0.853,2.324-2.805,3.223-3.775c0.977-1.041,2.721-3.172,3.438-3.367
		c1.146-0.306,2.345,0.35,2.7,0.977c0.997,1.733-1.632,3.057-2.18,4.374c-0.114,0.818,0.565,0.813,0.444,1.641
		c-3.098,2.312-4.516,6.575-6.172,11.049c-2.438,6.578-4.46,12.881-4.76,19.888c-0.567,13.431,7.518,24.317,14.26,32.912
		C88.068,90.674,89.076,90.363,89.035,89.934z"/>
</g>
<g>
	<path fill="#FFFFFF" d="M111.406,67.504l-0.529,0.551l0.209,1.436l-1.347,1.707l0.014,0.72l-0.47,0.49l0.371,0.533l-1.186,1.162
		l-0.758,1.336l-1.253,0.745c-0.474,0.49-0.991,0.761-1.553,0.812l-0.463,1.09l-0.613-0.528l-0.588,0.791
		c-0.004-0.2-0.17-0.457-0.498-0.77l-0.428-0.232l-0.472,0.55l-0.181,0.004l-0.474,0.489l-0.789-0.224l-1.26,0.443l-0.797-0.644
		c-0.121,0.003-0.302,0.006-0.543,0.011c-0.645,0.013-1.453-0.15-2.425-0.492l-0.854-0.403l-0.308-0.293l-0.972-0.342l-0.448-1.251
		c-0.686-0.025-1.393-0.172-2.121-0.438l-1.321-2.675l0.292-0.426l-0.31-0.475l-0.021-1.08l-0.372-0.592l0.346-0.728
		c-0.209-0.436-0.316-0.813-0.322-1.134c-0.002-0.079,0.017-0.159,0.056-0.241c-0.003-0.119-0.004-0.199-0.005-0.239l-0.037-1.86
		l0.228-0.604l-0.07-3.539l0.224-0.846l-0.247-0.354l0.566-1.69l-0.311-0.534l-0.026-1.32l0.293-0.366l-0.076-0.839l-0.252-0.595
		l0.502-1.93l-0.468-2.392l0.177-0.184l-0.016-0.78c-0.004-0.199-0.011-0.519-0.019-0.959c-0.012-0.56-0.021-0.999-0.026-1.32
		l-0.009-0.42l-0.454-1.731c0.074-0.281,0.21-0.484,0.408-0.608c-0.083-0.117-0.186-0.255-0.309-0.413
		c0.194-0.244,0.29-0.486,0.286-0.726c-0.007-0.32-0.215-0.675-0.622-1.067c-0.007-0.361,0.066-0.682,0.222-0.965l-0.252-0.596
		l0.286-0.666l-1-2.021l0.956-0.198l-0.002-0.121l2.078-1.121l1.104,1.239l0.132,0.597l0.913,0.643l-0.042,0.9
		c0.006,0.32-0.025,0.761-0.095,1.322c0.366,0.273,0.551,0.529,0.556,0.77c0.003,0.12-0.075,0.262-0.231,0.424l0.245,0.236
		l-0.221,0.965l0.441,1.07l-0.172,0.424l0.907,0.341l-0.355,0.788l-0.287,1.566c-0.03,0.24-0.095,0.603-0.19,1.084
		c0.005,0.24,0.016,0.779,0.032,1.619l0.01,0.48l0.01,0.479l-0.215,0.964c0.007,0.36-0.032,0.722-0.118,1.083l-0.043,0.182
		c0.203,0.196,0.429,0.451,0.676,0.766l-0.636,1.273l0.194,0.717l-0.112,0.362c0.006,0.32-0.047,0.701-0.158,1.144l0.065,0.238
		l-0.048,0.661l-0.041,0.9l-0.142,1.924l0.782,0.164l0.084-1.862l0.395-1.267l0.242,0.114l0.343-0.906
		c0.145-0.724,0.452-1.409,0.919-2.06c0.076-0.16,0.193-0.323,0.35-0.487l0.177-0.184l0.003,0.12l0.226-0.725l0.704-0.793
		l0.412-0.429l0.055-0.241l0.351-0.486c-0.011-0.52,0.162-0.904,0.518-1.151l0.11-0.482l0.775-0.256l0.296-0.186l0.113-0.362
		l-0.017-0.84l0.856-0.197l0.456-0.188l-0.429-0.411l0.955-0.26l1.004-0.8l1.86-0.036l1.152,0.637l0.361,0.053l1.049,1.419
		l0.071,0.599l0.481,0.051l0.205,1.257l0.609,0.468l0.018,0.9l0.368,0.412l0.425,0.232l0.278,1.914l0.004,0.18
		c0.004,0.2,0.129,0.469,0.376,0.803c0.246,0.336,0.371,0.622,0.376,0.862s-0.05,0.482-0.166,0.725l0.727,0.285
		c-0.069,0.562-0.2,1.004-0.394,1.327l0.206,1.316c0.167,0.397,0.254,0.695,0.258,0.896c0.002,0.12-0.034,0.341-0.107,0.663
		l-0.009,2.579l0.251,0.535l-0.221,0.965L111.406,67.504z M107.297,63.081l-0.142-1.078l0.021-1.022l-0.491-2.748l-0.582-1.969
		l-0.818-1.723l-1.369-2.071l-0.299,0.126l-0.235,0.305l-0.303,0.006c-0.146,0.723-0.58,1.11-1.303,1.165
		c-0.314,0.446-0.724,1.053-1.231,1.823l-0.711,0.673L99.6,57.47l-0.519,0.754l-0.57,1.512c0.014,0.68-0.228,1.423-0.724,2.231
		l-0.343,0.546l0.019,0.959l-0.935,1.337l-0.438,2.106l-0.414,0.248c0.001,0.04,0.022,0.12,0.064,0.238
		c0.003,0.12,0.005,0.221,0.006,0.3c0.015,0.72-0.151,1.441-0.497,2.167l0.381,1.071l-0.779,0.314l-0.125,0.243l-0.515,0.49
		l1.362,0.272l0.809,0.403l1.229-0.204l1.118,0.457l0.017,0.839l0.245,0.236l1.44-0.029l0.955-0.198
		c0.233-0.365,0.59-0.551,1.07-0.561l0.18-0.004l0.477-0.188l-0.255-0.717l1.68-0.033c0.34-1.047,0.981-1.979,1.925-2.8
		l-0.012-0.601l0.693-1.335l-0.027-1.379l0.149-1.564l-0.139-0.959L107.297,63.081z"/>
	<path fill="#FFFFFF" d="M150.633,72.606c0.01,0.48-0.339,1.067-1.045,1.762l-0.477,0.19l-0.409,0.548l-1.074,0.321
		c-0.194,0.284-0.392,0.428-0.591,0.432c-0.04,0.001-0.081-0.018-0.121-0.058c-0.081,0.001-0.141,0.003-0.18,0.003
		c-0.872,0.458-1.928,0.699-3.167,0.724l-0.479,0.01l-1.506-0.271l-1.029-0.46l-2.317-1.875l-0.513-1.608l-0.975-0.762
		c0.116-0.161,0.172-0.423,0.164-0.783c-0.005-0.24-0.173-0.637-0.504-1.191l0.152-1.442l-0.005-0.24
		c-0.01-0.479-0.163-1.096-0.457-1.852l0.324-1.807l-0.749,1.576l-0.897,0.137l-0.095,1.264c-0.317,0.166-0.695,0.253-1.135,0.262
		l-0.632,1.452l-0.762,0.916c-0.313,0.365-0.589,0.572-0.828,0.616l-0.178,0.124l-2.115,2.261l-0.24,0.005l-1.112,1.384
		l-1.069,0.578l-0.584,0.817l-1.371,0.461l-1.963,0.843l-1.213-0.583c-0.8,0.016-1.367-0.336-1.7-1.059l-0.547-0.292
		c-0.002-0.121,0.015-0.283,0.051-0.487c-0.004-0.202-0.007-0.344-0.009-0.425l-0.977-0.83l0.232-0.367l-0.753-1.685l0.234-0.248
		l-0.002-0.121c-0.002-0.08-0.004-0.202-0.007-0.363c-0.123-0.118-0.185-0.219-0.187-0.3c-0.009-0.444,0.027-0.87,0.11-1.277
		l0.014-1.577l-0.205-1.27c0.113-0.322,0.168-0.604,0.163-0.844c-0.006-0.28-0.092-0.538-0.256-0.775l0.65-0.493l-0.015-0.719
		l-0.278-1.976l0.583-3.853c-0.013-0.639-0.211-1.575-0.596-2.809c0.095-1.281,0.921-1.998,2.478-2.149l0.484,0.171l0.843,0.103
		l1.103,1.18l-0.449,1.572l0.052,2.583l0.219,1.978l-0.345,0.729l0.188,0.477l-0.46,0.971l0.012,0.602l0.004,0.18
		c0.002,0.121,0.006,0.3,0.011,0.54c0.01,0.521-0.02,1.062-0.088,1.624l0.128,0.419l-0.108,0.902l0.115,0.704l0.042,0.84
		c0.324,0.231,0.49,0.528,0.497,0.889c0.006,0.319-0.147,0.643-0.461,0.969l0.005,0.24c0.224,0.676,0.337,1.112,0.341,1.312
		l0.576,0.529c0.248-0.165,0.537-0.371,0.867-0.619c0.118-0.401,0.406-0.668,0.865-0.797l-0.012-0.602
		c0.24-0.005,0.618-0.071,1.136-0.202l0.109-0.543l1.012-0.44l0.176-0.185c0.273-0.284,0.729-0.555,1.364-0.807l-0.005-0.241
		l1.124-0.863c0.264-0.765,0.755-1.276,1.47-1.53c0.431-0.449,0.726-0.715,0.884-0.799l0.76-1.036l-0.004-0.18l0.238-0.125
		l0.535-0.251l0.283-0.846l1.249-0.566l0.238-0.064l0.412-0.429l-0.011-0.54l0.348-0.127c0.104-0.644,0.406-1.13,0.906-1.461
		l0.835-2.059l0.314-1.077l0.119-0.236l0.247-0.005l0.427-0.309l-0.362-0.113c0.425-0.729,0.75-1.495,0.974-2.3l1.739-0.094
		l1.402,1.111l0.618,0.948l-0.608,2.593l-0.875,1.218l-0.674,2.354l-0.594,0.372l0.019,0.899l-0.347,0.668l0.201,1.075l-0.472,0.43
		l0.277,1.915l0.174,2.696l0.3-0.006l0.031,1.56l0.86,1.004l0.788,0.404l0.065,0.299c0.28,0.035,0.623,0.129,1.026,0.28l1.502,0.09
		l0.895-0.257l1.604-0.812c0.316-0.166,0.715-0.255,1.195-0.264C150.002,71.06,150.613,71.568,150.633,72.606z"/>
	<path fill="#FFFFFF" d="M183.128,68.002l-0.556,2.232l0.254,0.715l-0.236,0.185c0.247,0.355,0.374,0.713,0.381,1.072
		c0.005,0.24-0.051,0.481-0.165,0.724l0.002,0.119c0.01,0.48-0.132,2.443-0.423,5.891l-0.098,1.143l0.005,0.24l-0.116,0.241
		l-0.055,0.241l0.067,0.359l-0.177,0.184l-0.173,0.363l-0.24,0.004l0.066,0.299l-0.112,0.363c0.005,0.279-0.09,0.562-0.283,0.846
		l-0.281,0.966c-0.111,0.441-0.304,0.846-0.576,1.212c-0.271,0.524-0.756,1.234-1.458,2.128l-1.005,0.801l-1.121,0.982l-0.891,0.438
		l-0.71,0.554l-0.478,0.13c-0.791,0.455-1.686,0.732-2.684,0.833l-0.36-0.053l-0.535,0.251l0.002,0.119
		c-0.678,0.173-1.255,0.264-1.734,0.273l-2.34,0.047l-1.446-0.271l-1.253,0.325l-0.611-0.53l-1.803-0.147l-1.222-1.062l-0.91-0.467
		c-1.611-0.573-2.553-1.622-2.822-3.147l0.115-0.245l-0.199-0.962c0.465-0.776,0.896-1.188,1.296-1.236
		c0.315-0.207,0.634-0.314,0.954-0.32c1.483,0.211,2.626,0.328,3.427,0.352l-0.102,0.903l0.729,0.465l0.014,0.721l-0.468,0.608
		l2.776,0.785l1.374-0.327l0.009,0.42l0.416-0.129l0.119-0.002c0.039-0.001,0.299,0.033,0.78,0.104l0.063,0.239l0.592-0.312
		c0.474-0.25,1.428-0.389,2.864-0.417c0.234-0.165,0.431-0.329,0.588-0.493c0.04,0,0.14,0.019,0.301,0.055
		c0.159-0.003,0.278-0.005,0.357-0.007c0.239-0.005,0.475-0.249,0.704-0.732c0.042,0.118,0.123,0.177,0.243,0.175
		c0.08-0.002,0.178-0.044,0.297-0.126c0.117-0.084,0.196-0.124,0.236-0.125l0.119-0.032l1.919-1.681l0.851-1.398l0.043-0.78
		l0.628-0.853l0.043-0.782l0.337-0.727l0.261-1.627l0.438-1.508c-0.005-0.24-0.012-0.602-0.021-1.081
		c-0.018-0.88,0.085-1.763,0.308-2.648l-0.379-0.953l-0.059-2.939l-0.379-1.015l-0.034-1.68l-0.505-1.25l-0.038-1.921l-0.065-0.299
		l-0.417,0.13l-0.341,0.91l-0.883,0.802l-1.042,1.769l-1.534,1.115l-1.641,1.78c-0.938,1.023-2.038,1.931-3.299,2.718l-0.584,0.734
		l-0.888,0.561l-0.829,0.438l-0.763,0.799l-0.947,0.501c-0.313,0.328-0.769,0.559-1.364,0.69c-0.865,0.619-1.856,0.94-2.974,0.963
		l-0.658,0.013c-0.199,0.004-0.479,0.01-0.838,0.017c-0.319,0.007-0.559-0.009-0.719-0.045l-1.078-0.039l-1.586-1.47l-1.166-1.478
		l-0.505-1.25l-0.467-2.391l0.206-1.744l0.56-2.051l-0.133-0.658l0.503-1.871l0.519-1.091c0.148-0.521,0.217-1.144,0.202-1.863
		l1.271-2.486c0.113-0.322,0.407-0.668,0.88-1.037l0.579-1.031l0.705-0.795c0.148-0.522,0.46-0.988,0.932-1.398
		c0.316-0.166,0.54-0.471,0.672-0.914c0.132-0.442,0.873-0.856,2.227-1.244l-0.299,0.066l0.297-0.126
		c0.116-0.201,0.388-0.607,0.817-1.217l0.721,0.106l0.533-0.371c0.628-0.572,1.304-0.866,2.023-0.881l0.42-0.008l1.548-0.631
		l0.905,0.282l1.08-0.021l0.667,0.347c0.4,0.032,0.724,0.206,0.971,0.521l0.856,0.823l0.242,0.115l0.125,0.237l0.556,0.83
		l0.066,0.296l-0.161,0.957l0.133,0.654l-0.746,1.207l-1.715,0.273l-0.946-1.41l-0.865-0.268l-0.428-0.411l-0.602,0.004
		c-0.199,0.085-0.617,0.293-1.253,0.626l-0.051,0.48l-1.505,0.029c-0.39,0.609-0.824,0.938-1.306,0.986
		c-0.237,0.166-0.476,0.311-0.714,0.435l-0.458,1.15l-0.421,0.067l-0.05,0.541l-0.843-0.003l-0.727,1.292l-0.65,0.433l-0.224,0.846
		l-0.874,1.278l-0.095,1.204l-0.706,0.733l-0.607,2.597l-0.47,0.489l0.088,0.659l-0.688,2.29l0.192,0.716l-0.046,0.723
		c0.288,0.394,0.437,0.811,0.445,1.25l0.422,0.111l0.188,0.355c0.68-0.014,1.12,0.059,1.324,0.214
		c0.354-0.286,1.328-0.605,2.922-0.957c0.229-0.565,0.56-0.98,0.995-1.25c0.435-0.269,1.324-0.777,2.671-1.523l0.181,0.056
		c-0.006-0.319,0.108-0.621,0.342-0.906c0.596-0.252,0.952-0.419,1.07-0.502c0.316-0.206,0.49-0.469,0.524-0.79l0.955-0.259
		l0.59-0.552l1.459-2.069l0.425,0.23c0.037-0.119,0.467-0.668,1.287-1.645l1.407-1.709l0.104-0.782
		c0.472-0.449,1.006-1.739,1.604-3.872l-0.324-1.254l-0.496-0.83l0.342-0.908l-0.493-0.65l-0.137-0.836l-0.192-0.597l0.579-1.092
		c0.633-0.332,1.09-0.502,1.37-0.508c0.36-0.007,0.844,0.164,1.451,0.512l0.435,0.771l0.792,0.585l0.146,1.316
		c0.128,0.358,0.278,0.896,0.452,1.611c0.207,0.356,0.315,0.774,0.325,1.254l0.008,0.42l0.128,0.358l0.679,0.946l-0.159,1.083
		l0.37,0.474c0.125,0.277,0.191,0.576,0.197,0.896c0.006,0.28-0.011,0.502-0.047,0.661l0.664,0.167l-0.511,1.51l0.263,1.136
		c0.208,0.396,0.315,0.754,0.321,1.074c0.007,0.32-0.086,0.722-0.275,1.205l0.365,0.294L183.128,68.002z"/>
	<path fill="#FFFFFF" d="M227.943,52.23l-0.44,1.99l-2.214,0.344l-1.184,0.804l-0.788-0.345l-0.83,0.484l-0.893,0.368l-0.592,0.423
		l-0.016,0.232l-1.234,0.648l-0.817,1.11l-0.42,0.009c-0.626,0.693-1.076,1.122-1.354,1.288l-0.812,1.396l-0.297,0.126
		c-0.114,0.321-0.245,0.805-0.392,1.447l-0.833,0.316l-0.345,0.728l-0.468,0.609l-0.1,0.902l-0.478,0.189l0.019,0.9l-0.177,0.182
		c0.124,0.198,0.268,0.415,0.433,0.652l-0.893,0.377l-0.104,0.783l-0.579,1.032L212.512,70l-0.759,1.096
		c0.088,0.398,0.134,0.678,0.137,0.837c0.001,0.041,0.003,0.12,0.005,0.24c-0.038,0.121-0.056,0.222-0.054,0.301l0.131,0.538
		l1.041,1.06l-0.753,1.396l-0.709,0.554l-1.663,0.873l-2.237-0.855l-0.027-1.38l-0.251-0.535l0.163-0.903
		c-0.094-0.638-0.143-1.117-0.149-1.438c-0.002-0.12,0.015-0.279,0.051-0.481c-0.004-0.198-0.007-0.338-0.008-0.419l-0.072-0.599
		c-0.286-0.273-0.432-0.592-0.438-0.951c-0.007-0.32,0.126-0.683,0.398-1.089c-0.004-0.2-0.057-0.799-0.156-1.797l0.177-0.184
		l-0.195-0.776l0.105-0.723l-0.129-0.417l0.153-1.384L206.9,62.37l0.227-0.665l-0.255-0.774c0.034-0.241,0.049-0.561,0.041-0.961
		c-0.013-0.6-0.101-0.997-0.264-1.195l0.232-0.364l-0.262-1.075l-0.555-0.769l0.28-0.966l-0.247-0.355l-0.269-1.435l-0.01-0.48
		c-0.205-0.236-0.311-0.534-0.317-0.894c-0.016-0.799,0.851-1.496,2.6-2.092l1.506,0.271l0.322,1.132l0.615,0.769l-0.148,1.624
		c0.136,0.798,0.293,1.675,0.473,2.63l0.199,0.957c0.041,0.08,0.085,0.298,0.133,0.657c0.005,0.24-0.091,0.503-0.285,0.786
		l0.204,1.197l-0.094,1.32l-0.228,0.605l0.185,0.235l0.132,0.599c0.234-0.284,0.368-0.588,0.402-0.909l0.222-0.902
		c0.115-0.243,0.292-0.427,0.529-0.551l0.223-0.905l0.83-0.497l0.105-0.723l0.646-0.732l0.462-0.91
		c0.509-0.568,1.002-0.938,1.479-1.108l0.116-0.183l0.523-0.851l0.598-0.132l0.177-0.184l0.232-0.364l0.652-0.374l0.352-0.427
		l0.361,0.054l0.476-0.25l0.232-0.365l0.713-0.374l1.007-0.68l1.43-0.509c0.558-0.09,0.857-0.136,0.897-0.137l0.001,0.06
		c-0.04,0.001-0.059,0.021-0.058,0.061l0.06-0.001c0.159-0.003,0.397-0.087,0.715-0.253c0.196-0.164,0.475-0.25,0.835-0.257
		c0.159-0.004,0.44,0.031,0.843,0.103C227.215,50.846,227.804,51.314,227.943,52.23z"/>
	<path fill="#FFFFFF" d="M247.844,69.24c0.01,0.479-0.34,1.088-1.044,1.82c-0.188,0.645-0.479,1.171-0.87,1.578l-0.357,0.067
		l-0.638,1.152l-1.077,0.202l-1.125,0.742l-0.578,1.091l-0.66,0.014c-0.438,0.182-0.796,0.292-1.074,0.334l-0.35,0.475
		c-0.121,0.002-0.301,0.006-0.541,0.011c-0.52,0.01-1.012,0.359-1.479,1.049l-0.854-0.703c-0.16,0.004-0.4,0.008-0.721,0.015
		c-0.52,0.011-0.961-0.082-1.324-0.273l-1.021,0.02l-0.483-0.288c-1.526-0.208-2.497-0.764-2.915-1.666l-0.004-0.179L230,74.356
		l-0.379-1.003l-0.729-0.463l-0.018-0.893l-0.772-2.602l-0.042-2.142l0.342-0.96l-0.025-1.248l0.281-0.957l-0.068-0.415l0.405-0.723
		l-0.116,0.123c-0.007-0.36,0.084-0.741,0.276-1.146l-0.006-0.301l-0.209-1.435c-0.013-0.68,0.275-1.286,0.865-1.817
		c0.037-0.081,0.057-0.201,0.054-0.361c-0.004-0.159-0.08-0.488-0.231-0.986c-0.15-0.496-0.226-0.846-0.229-1.045
		c-0.01-0.479,0.1-0.981,0.33-1.507c0.329,0.474,0.793,0.704,1.393,0.692l0.182-0.004c0.075-0.16,0.253-0.344,0.528-0.551
		c0.301-1.005,0.724-1.854,1.271-2.546l0.235-0.244c-0.003-0.159,0.106-0.622,0.331-1.387l0.48-0.01l0.113-0.302l0.478-0.13
		c0.193-0.323,0.32-0.516,0.38-0.578c0.058-0.061,0.481-0.318,1.274-0.775c0.154-0.282,0.39-0.548,0.705-0.793
		c0.156-0.084,0.355-0.168,0.595-0.253l0.233-0.364c1.071-0.382,1.748-0.575,2.027-0.581c0.32-0.006,0.622,0.069,0.904,0.223
		l0.3-0.066l0.425,0.231c0.487,0.352,0.973,0.642,1.457,0.872l1.034,0.76l0.005,0.239c0.935,0.703,1.415,1.713,1.441,3.032
		l-0.168,0.604l0.22,1.977l-0.534,0.37l-0.568,1.572l-1.113,1.282l-0.041,0.961c-1.264,0.946-2.429,1.709-3.497,2.289
		c-0.349,0.567-0.903,0.857-1.662,0.873l-0.18,0.003l-1.127,0.744l-0.959,0.019l-1.428,0.628l-1.089-0.519l-0.121,0.003
		c-0.074,0.323-0.145,0.809-0.212,1.453l-0.472,0.372l-0.046,0.725l-0.339,1.033c0.097,0.965,0.15,1.587,0.156,1.868l-0.196,0.187
		c0.011,0.522,0.001,0.906-0.027,1.147c0.001,0.04-0.016,0.101-0.048,0.182c0.002,0.081,0.003,0.142,0.004,0.181
		c0.007,0.323,0.172,0.581,0.496,0.776c0.131,0.479,0.336,0.777,0.617,0.893l0.428,0.354l1.326,0.335l0.004,0.182l0.482,0.11
		l2.039-0.04l1.198-0.201l0.59-0.427l0.357-0.126l0.584-0.901l0.298-0.066l1.49-0.503c0.154-0.28,0.409-0.522,0.767-0.727
		l0.174-0.301c0.795-0.174,1.248-0.599,1.354-1.272c0.55-0.564,1.263-0.856,2.144-0.874l0.24-0.005
		C247.438,67.969,247.833,68.681,247.844,69.24z M241.561,52.081c-0.002-0.12-0.065-0.358-0.193-0.717l-0.3-0.055l-0.12,0.063
		c-0.039,0.001-0.119,0.002-0.24,0.005c-0.079,0.041-0.159,0.062-0.239,0.064c-0.039,0-0.1-0.018-0.181-0.057
		c-0.08,0.002-0.141,0.003-0.18,0.004l-0.592,0.432l-0.539,0.07l-0.297,0.126l-0.992,1.341l-0.65,0.493l-0.928,1.699l-0.532,0.37
		c-0.107,0.682-0.376,1.268-0.806,1.756l-0.231,0.425c0.434-0.288,0.931-0.438,1.491-0.45l0.417-0.188l0.169-0.544l0.841,0.043
		l0.466-0.729l0.359-0.007l0.664,0.228l0.283-0.906l0.42-0.008l-0.014-0.66l0.776-0.195l0.176-0.184l0.11-0.542l0.757-1.156
		C241.533,52.603,241.567,52.361,241.561,52.081z"/>
	<path fill="#FFFFFF" d="M274.76,64.746l-0.685,1.813l0.504,1.19l-0.232,0.365l-0.222,0.965l-0.464,0.85l-0.236,0.123l-0.098,1.143
		l-1.077,0.142c-0.55,0.531-1.121,0.963-1.715,1.294l-0.361-0.053l-0.894,0.318l-0.539,0.07l-1.131,0.442l-1.332-0.573l-0.183-0.117
		l-1.019,0.081l0.243,0.114l-1.686-0.206l-1.492,0.39l-0.61-0.528l-1.257,0.145l-0.488-0.35c-0.04,0.001-0.199,0.024-0.478,0.069
		l0.007,0.36c0.007,0.359-0.047,0.721-0.159,1.083l0.203,1.137l-0.349,0.605c0.018,0.88,0.03,1.54,0.039,1.98l-0.149,1.504
		l0.225,2.275l-0.408,0.608l0.258,0.896l-0.168,0.603l0.363,0.173l0.019,0.9c0.004,0.24,0.008,0.419,0.01,0.539
		c0.008,0.359-0.166,0.664-0.521,0.91l0.257,0.836l-0.409,0.488l0.047,2.4c-0.064,2.8-0.658,4.214-1.777,4.235
		c-0.24,0.005-0.943-0.145-2.108-0.446l0.264-1.832l-0.534-2.668l0.579-1.108l-0.026-1.34l-0.312-1.821l0.555-0.66l-0.44-1.372
		l0.286-0.726l-0.324-1.193l0.399-1.088c-0.079-0.238-0.223-0.455-0.429-0.651c-0.208-0.196-0.312-0.334-0.312-0.414
		c-0.003-0.12,0.094-0.242,0.292-0.366c-0.002-0.119-0.006-0.32-0.012-0.6c-0.01-0.521,0.097-1.202,0.32-2.046l-0.372-0.592
		l0.164-0.784l-0.49-0.53l0.586-0.672l-0.334-1.733l0.371-2.468l-0.436-0.771l0.638-1.153l-0.673-0.646l0.338-1.146l-0.366-0.293
		l0.1-1.022l0.215-1.265l-0.005-0.24l0.056-0.241l-0.014-0.659l0.055-0.241l-0.318-0.953l0.279-1.026l-0.315-0.773l0.223-0.905
		l-0.245-0.235l0.157-1.202l-0.194-0.655l0.108-0.603l-0.188-0.416l-2.141,1.002l-0.007-0.359l-0.423,0.068l-0.655,0.612
		l-0.545,0.011l-0.707,0.974l-0.61-0.227l-0.292,0.605c-2-1.12-3.009-2.02-3.022-2.7c-0.01-0.48,0.184-0.884,0.577-1.212
		l-0.079-0.899c1.108-0.661,2.16-1.022,3.159-1.082l0.412-0.428l1.904-0.818l0.412-0.428l1.681,0.086l0.298-0.126l0.498-2.11
		l1.446,0.271l0.991,1.541l0.529-0.551l1.095,0.759c0.52-0.011,1.021,0.08,1.506,0.27l0.311,0.534l0.416-0.188l0.487,0.351
		c0.28-0.006,0.5,0.011,0.661,0.047l-0.053,0.36l1.312-0.445l0.673,0.706l1.148,0.336l0.798,0.945l1.458,0.871l0.062,0.119
		l1.146,0.338l0.007,0.359c0.324,0.234,0.571,0.55,0.739,0.945l0.486,0.291l0.372,0.651l0.721-0.014l0.024,1.2l0.428,0.411
		l0.129,0.418l0.602,0.108c0.099,0.919,0.373,1.694,0.826,2.323l0.008,0.42l0.611,0.589l-0.101,0.962l0.502,1.07l0.204,1.257
		L274.76,64.746z M270.279,65.734l-0.065-0.299l0.055-0.24l-0.382-1.072l0.229-0.545l-0.25-0.476l-0.071-0.599l-0.499-0.95
		l-0.253-0.655l-0.931-1.542l-0.73-0.585l-0.44-1.012l-0.545-0.229l-0.985-1.241l-0.957,0.139l-0.74-0.945l-0.597,0.132
		l-0.435-0.771l-0.241-0.056l-0.84,0.017l-0.594,0.312l-0.49-0.47l-0.597,0.132l-0.249-0.415l-1.084-0.159l0.015,0.721l0.022,1.139
		l0.239,0.655l0.81,0.764l-0.631,1.454l0.077,0.899l-0.385,1.807c0.155,0.757,0.448,1.393,0.878,1.903l-0.227,0.665
		c0.041,0.039,0.062,0.079,0.062,0.119c0.003,0.119-0.154,0.303-0.47,0.549l0.431,0.531l-0.285,0.726l-0.104,0.782l0.197,0.837
		l-0.046,0.78l1.26-0.025c0.159-0.082,0.378-0.126,0.658-0.132c0.36-0.007,0.682,0.105,0.967,0.341
		c0.04-0.001,0.12-0.022,0.239-0.064c0.08-0.002,0.14-0.003,0.18-0.004c0.12-0.002,0.341,0.033,0.661,0.107
		c0.238-0.125,0.457-0.19,0.657-0.194c0.319-0.006,0.621,0.069,0.905,0.223l0.54-0.011l0.481,0.11l1.193-0.384l0.972,0.581
		c0.361,0.113,0.503,0.17,0.423,0.172l1.117-1.162l0.103-0.844l0.299-0.125l-0.19-0.477l0.411-0.488L270.279,65.734z"/>
	<path fill="#FFFFFF" d="M300.632,59.072l-0.339,1.086c0.021,1.041-0.022,1.861-0.131,2.464l-0.349,0.606l0.013,0.66l-0.291,0.426
		l-0.163,0.843l-0.647,0.673l-0.39,1.509l-0.477,0.19l-0.228,0.663l-0.711,0.436l-0.459,1.028l-0.714,0.374l-0.045,0.722
		l-1.132,0.442c-0.506,0.729-1.137,1.203-1.893,1.418l-0.237,0.065c-0.544,0.851-1.276,1.285-2.196,1.304
		c-0.396,0.248-0.853,0.376-1.372,0.387l-0.592,0.432l-0.597,0.191l-0.767,0.615l-0.78,0.016l-0.836,0.197l-1.029-0.4l-2.582-0.129
		l-0.928-1.361l-1.348-1.354l0.281-0.966l-0.939-2.021l0.284-0.786l-0.208-1.436l0.161-0.904c-0.011-0.56-0.019-0.96-0.023-1.2
		c-0.015-0.758,0.181-1.322,0.588-1.691c0.034-0.4,0.289-1.065,0.77-1.996l0.311-0.006l-0.189-0.417l0.164-0.843l-0.018-0.898
		c0.312-0.367,0.487-0.611,0.525-0.731l-0.197-0.837l-0.005-0.24c0.269-0.564,0.397-1.147,0.386-1.747l1.226-1.765
		c0.195-0.163,0.333-0.286,0.412-0.368l-0.065-0.239l0.24-0.005l0.881-1.037l0.032-1.381l1.489-0.57
		c0.552-0.37,0.9-0.978,1.044-1.82l0.779-0.016c0.435-0.249,0.833-0.377,1.193-0.384c0.359-0.007,0.701,0.067,1.024,0.22
		l0.661,0.047l1.548-0.631l0.854,0.764l0.668,0.407l0.48-0.01l0.909,0.462l0.48-0.01c0.529,0.47,1.142,1.117,1.838,1.944
		l0.126,0.297l0.425,0.232l1.292,1.595l1.196,2.796l0.012,0.601L300.632,59.072z M296.702,60.569l-0.066-0.298
		c-0.286-0.274-0.452-0.569-0.497-0.888l0.173-0.303l-0.562-1.126l0.098-1.141l-0.246-0.294c-0.528-0.389-0.814-0.702-0.858-0.941
		c-0.363-0.152-0.552-0.548-0.564-1.186l-0.361-0.053l-0.743-1.183l-0.549-0.408l-1.268-0.455l-0.483-0.11
		c-0.239,0.005-0.401-0.071-0.484-0.229l-1.174,1.335l-0.747,1.686l-1.246,0.681l-0.166,0.659l-0.595,0.311l-0.209,1.555
		l-0.714,0.372c-0.148,0.56-0.218,1.079-0.208,1.555l-0.942,0.913l0.304,0.173c0.009,0.478-0.185,0.898-0.579,1.266
		c-0.128,0.359-0.299,0.761-0.514,1.202l0.01,0.477l0.005,0.238l0.014,0.715l-0.627,1.624l0.125,0.295l0.033,1.67l-0.223,0.839
		l0.076,0.834l0.555,0.765l0.845,0.281l0.302,0.113l0.479-0.01l1.558-0.03l0.228-0.604l0.239-0.005
		c0.24-0.005,0.381,0.052,0.423,0.171l0.535-0.19l0.482,0.171l0.769-0.56l0.116-0.185l0.536-0.131
		c0.271-0.448,0.921-0.904,1.951-1.369l0.114-0.304l1.181-0.87l0.64-0.981l0.951-0.499l0.057-0.3l0.3-0.666l-0.016-0.776
		l0.708-0.612l0.232-0.424l0.292-0.365c-0.169-0.476-0.256-0.814-0.26-1.014c-0.007-0.359,0.105-0.74,0.338-1.145L296.702,60.569z"
		/>
	<path fill="#FFFFFF" d="M327.702,50.253l-0.441,1.99l-2.213,0.344l-1.185,0.804l-0.787-0.345l-0.831,0.484l-0.893,0.368
		l-0.591,0.423l-0.016,0.232l-1.235,0.648l-0.817,1.11l-0.42,0.009c-0.626,0.693-1.076,1.122-1.353,1.288l-0.812,1.396l-0.298,0.126
		c-0.113,0.321-0.244,0.805-0.391,1.446l-0.833,0.316l-0.346,0.729l-0.468,0.609l-0.099,0.902l-0.479,0.189l0.019,0.9l-0.177,0.182
		c0.124,0.198,0.269,0.415,0.434,0.652l-0.894,0.377l-0.104,0.782l-0.579,1.033l0.374,0.771l-0.758,1.096
		c0.088,0.398,0.134,0.678,0.137,0.837c0.001,0.041,0.003,0.12,0.005,0.24c-0.037,0.121-0.055,0.222-0.054,0.301l0.13,0.538
		l1.041,1.06l-0.752,1.396l-0.709,0.554l-1.663,0.873l-2.238-0.855l-0.027-1.38l-0.249-0.535l0.161-0.903
		c-0.094-0.638-0.143-1.117-0.149-1.438c-0.002-0.12,0.015-0.279,0.051-0.481c-0.004-0.198-0.007-0.338-0.009-0.419l-0.071-0.599
		c-0.285-0.273-0.431-0.592-0.438-0.951c-0.007-0.32,0.126-0.683,0.397-1.089c-0.004-0.2-0.057-0.799-0.155-1.797l0.175-0.184
		l-0.193-0.777l0.104-0.722l-0.128-0.417l0.151-1.384l-0.37-0.593l0.228-0.665l-0.256-0.774c0.034-0.241,0.049-0.561,0.041-0.961
		c-0.013-0.6-0.101-0.997-0.265-1.195l0.233-0.364l-0.262-1.075l-0.555-0.769l0.281-0.966l-0.248-0.355l-0.269-1.436l-0.01-0.48
		c-0.205-0.236-0.311-0.533-0.317-0.893c-0.016-0.799,0.85-1.496,2.599-2.092l1.506,0.27l0.323,1.133l0.615,0.769l-0.147,1.624
		c0.136,0.798,0.293,1.675,0.472,2.63l0.199,0.957c0.04,0.08,0.086,0.298,0.133,0.657c0.005,0.24-0.091,0.503-0.284,0.786
		l0.203,1.197l-0.094,1.32l-0.229,0.605l0.186,0.235l0.132,0.599c0.234-0.284,0.368-0.588,0.402-0.909l0.222-0.902
		c0.115-0.243,0.291-0.428,0.528-0.551l0.223-0.905l0.83-0.497l0.105-0.723l0.646-0.732l0.462-0.91
		c0.508-0.568,1.002-0.938,1.479-1.108l0.116-0.183l0.523-0.851l0.597-0.132l0.177-0.184l0.232-0.364l0.653-0.374l0.351-0.427
		l0.362,0.054l0.476-0.25l0.231-0.365l0.714-0.374l1.007-0.68l1.43-0.509c0.558-0.09,0.857-0.136,0.897-0.137l0.001,0.06
		c-0.04,0.001-0.06,0.021-0.059,0.061l0.06-0.001c0.159-0.003,0.397-0.087,0.715-0.254c0.197-0.164,0.476-0.249,0.836-0.257
		c0.159-0.003,0.44,0.032,0.843,0.104C326.973,48.868,327.563,49.336,327.702,50.253z"/>
	<path fill="#FFFFFF" d="M346.972,50.651c0.007,0.36-0.347,0.708-1.06,1.042c-0.155,0.203-0.453,0.389-0.89,0.557
		c-0.556,0.252-0.951,0.461-1.188,0.625l-1.269-0.396c-0.63,0.492-1.445,0.749-2.444,0.769l-0.724-0.165l-0.531,0.431l-1.62,0.032
		l-1.006,0.738c-0.443-0.15-0.865-0.223-1.265-0.215c-0.118,0.083-0.396,0.169-0.835,0.257c-0.2,0.004-0.421-0.051-0.663-0.167
		l-0.135,2.283l0.033,1.679l0.041,2.097l0.072,2.279l0.204,1.076l-0.013,0.84l0.875,1.784c-0.116,0.124-0.174,0.266-0.171,0.425
		c0.005,0.28,0.449,0.492,1.333,0.634l0.135,0.719l0.424,0.172l0.728,0.467l0.488,0.35c0.397-0.088,0.677-0.134,0.837-0.137
		c0.359-0.007,0.721,0.045,1.084,0.158c0.157-0.082,0.491-0.368,1.003-0.859c0.354-0.326,0.689-0.493,1.01-0.499
		c0.039-0.001,0.099-0.002,0.18-0.004c0.08-0.002,0.14-0.003,0.18-0.004c0.346-0.736,0.976-1.229,1.892-1.479
		c0.841-0.017,1.545,0.23,2.116,0.739l0.008,0.42c0.027,1.359-0.437,2.228-1.39,2.607c-0.342,0.847-1.093,1.402-2.248,1.665
		l-0.706,0.675l-0.779,0.016l-1.373,0.387c-0.318,0.086-0.776,0.135-1.378,0.147c-0.32,0.006-0.661-0.067-1.023-0.221l-0.779,0.016
		l-2.123-1.098l-0.543-0.169l-1.294-1.656l-0.734-0.765l-1.38-2.973l-0.535-2.811l0.165-0.723l-0.553-0.649l0.284-0.846
		l-0.327-1.314l0.411-0.429l0.105-0.781l-0.194-0.717l0.158-1.083l-0.318-0.954l0.293-0.306l-0.019-0.96l-0.424-0.173l-1.135,0.263
		l-1.094-0.697l-0.18,0.004c-1.199,0.023-1.813-0.612-1.839-1.91l-0.004-0.183l-0.742-1.143l1.118-1.117l1.504,0.21l0.777-0.135
		l1.146,0.277l1.26-0.025l-0.023-1.199l-0.813-1.664l0.771-0.436l-0.317-0.895l0.022-1.86l-0.495-0.771
		c-0.29-0.434-0.438-0.832-0.444-1.191c-0.009-0.439,0.084-0.802,0.279-1.086l0.163-0.844l0.47-0.488
		c1.076-0.221,1.794-0.336,2.153-0.343c1.28-0.025,1.992,0.542,2.136,1.706l-0.175,0.307c0.247,0.356,0.374,0.695,0.381,1.018
		c0.001,0.041-0.018,0.142-0.054,0.303l-0.113,0.364l-0.052,0.423l0.256,0.781l-0.054,0.302l0.136,0.841l-0.524,0.734l0.323,1.201
		l-0.212,1.453l0.491,0.533l-0.458,1.094l1.854-0.337l3.306,0.234l2.63-0.472l0.901,0.043l0.299-0.067l2.34-0.046
		C346.325,49.344,346.955,49.772,346.972,50.651z"/>
	<path fill="#FFFFFF" d="M372.315,66.772l-0.703,0.854l-0.629,1.572l-0.472,0.369l-0.403,0.849l-1.197,0.144l-0.766,0.796
		l-1.2,0.023l-0.707,0.614l-0.663-0.167l-0.776,0.195l0.009,0.48l-2.223-0.136l-0.96,0.02l-0.712,0.434l-0.606-0.349
		c0.398-0.048,0.719-0.073,0.959-0.078c-0.321,0.035-1.278,0.115-2.877,0.236l-0.181-0.086l-0.481-0.08l-0.772,0.436
		c-0.242-0.099-0.685-0.204-1.326-0.319c-0.881-0.033-1.462-0.046-1.741-0.04l-0.479,0.009c-0.283-0.114-0.584-0.169-0.904-0.162
		c-0.32,0.006-0.639,0.073-0.956,0.199l-0.85-0.52l-0.482-0.108c-0.12,0.002-0.342-0.052-0.663-0.166
		c-1.483-0.128-2.248-1.343-2.294-3.641l-0.011-0.535l1.124-0.854l1.429-0.564l1.091,0.519l0.839-0.017l0.004,0.181
		c0.402,0.152,0.73,0.465,0.979,0.941l0.481,0.05l0.016,0.779l0.783,0.164l0.183,0.116l7.668-0.631l1.854-0.337l0.18-0.004
		l0.114-0.302l0.837-0.137l0.117-0.183c0.836-0.137,1.611-0.393,2.324-0.766l0.055-0.302c-0.041-0.039-0.124-0.178-0.249-0.416
		l-0.298,0.066l-0.793-0.585l-0.539,0.011l-0.308-0.414l0.175-0.242l-0.658,0.133l-0.488-0.471c-0.12,0.002-0.32,0.006-0.6,0.012
		c-0.521,0.011-1.043-0.079-1.566-0.269l-0.54,0.011l-0.424-0.173l-0.833,0.317l-0.491-0.53l-0.18,0.004l-0.853-0.643l-1.875-0.684
		l-0.609-0.468l-2.287-0.375l-0.249-0.415l-1.701-1.047l-0.939-1.962l-0.738-1.005l-0.303-3.115l0.233-0.364
		c0.062-0.921,0.365-1.727,0.911-2.419c0.595-0.331,0.885-0.798,0.873-1.397l0.896-0.198c0.153-0.323,0.468-0.629,0.941-0.918
		l0.887-0.737l3.75-1.516l0.657-0.192l1.196-0.145l1.969-0.579l3.784,0.166l0.126,0.297c0.362,0.113,0.768,0.426,1.219,0.937
		l0.006,0.3l0.972,0.58l-0.392,1.448l-0.109,0.542c-0.219,1.005-0.77,1.516-1.649,1.533c-0.72,0.015-1.266-0.314-1.64-0.988
		l-0.004-0.18l-0.702,0.019l-0.838,0.248l-0.796-0.58l-0.416,0.32c-0.523,0.011-1.002,0.187-1.437,0.527
		c-0.604,0.013-1.182,0.274-1.734,0.784h-0.785l-0.534,0.367l-0.834,0.198l-0.117,0.122l-0.354,0.188l-0.526,0.552l-0.178,0.063
		l-0.521,0.853l-0.65,0.374c-0.148,0.525-0.24,0.969-0.272,1.329c0.05,0.562,0.128,0.932,0.232,1.109
		c0.103,0.179,0.376,0.364,0.821,0.556l0.006,0.301l0.788,0.406c0.646,0.228,1.131,0.479,1.458,0.752l1.2-0.028l0.773,0.67
		l1.386,0.151l0.547,0.345l2.356,0.606l0.312,0.646l0.231-0.425c0.521-0.01,1.227,0.215,2.116,0.679l1.086,0.158l0.128,0.417
		l0.961-0.019l1.701,0.927c0.211,0.515,0.66,0.987,1.35,1.413l0.669,0.406l-0.166,0.724c0.287,0.395,0.437,0.812,0.444,1.252
		L372.315,66.772z"/>
	<path fill="#FFFFFF" d="M421.275,63.281l-0.557,2.232l0.255,0.715l-0.237,0.185c0.248,0.355,0.375,0.712,0.382,1.071
		c0.005,0.24-0.05,0.482-0.165,0.725l0.002,0.119c0.01,0.48-0.132,2.443-0.423,5.891l-0.098,1.142l0.005,0.24l-0.116,0.242
		l-0.055,0.241l0.067,0.359l-0.177,0.184l-0.173,0.362l-0.239,0.005l0.065,0.299l-0.113,0.362c0.006,0.279-0.089,0.562-0.282,0.846
		l-0.28,0.966c-0.112,0.442-0.304,0.847-0.577,1.213c-0.271,0.523-0.755,1.233-1.458,2.128l-1.005,0.801l-1.12,0.982l-0.892,0.438
		l-0.709,0.555l-0.478,0.13c-0.792,0.455-1.687,0.732-2.685,0.832l-0.36-0.052l-0.535,0.251l0.003,0.119
		c-0.678,0.172-1.255,0.264-1.735,0.273l-2.34,0.046l-1.446-0.271l-1.253,0.324l-0.61-0.53l-1.804-0.146l-1.221-1.063l-0.91-0.466
		c-1.612-0.573-2.553-1.622-2.822-3.147l0.114-0.245l-0.199-0.962c0.465-0.776,0.896-1.188,1.296-1.236
		c0.315-0.207,0.634-0.314,0.954-0.32c1.484,0.21,2.626,0.327,3.427,0.352l-0.102,0.903l0.729,0.465l0.015,0.721l-0.469,0.608
		l2.776,0.785l1.373-0.327l0.009,0.42l0.417-0.129l0.118-0.002c0.04-0.001,0.301,0.033,0.781,0.104l0.063,0.239l0.592-0.312
		c0.474-0.25,1.429-0.39,2.864-0.418c0.235-0.165,0.431-0.329,0.588-0.492c0.04-0.001,0.14,0.018,0.3,0.055
		c0.16-0.003,0.279-0.006,0.358-0.007c0.239-0.005,0.475-0.249,0.705-0.733c0.041,0.118,0.122,0.178,0.242,0.175
		c0.08-0.001,0.179-0.043,0.297-0.126c0.117-0.083,0.197-0.124,0.236-0.125l0.119-0.031l1.92-1.682l0.85-1.397l0.043-0.781
		l0.628-0.853l0.043-0.781l0.337-0.727l0.261-1.627l0.439-1.508c-0.005-0.24-0.012-0.602-0.021-1.081
		c-0.018-0.88,0.084-1.763,0.307-2.649l-0.378-0.952l-0.059-2.939l-0.38-1.015l-0.034-1.68l-0.505-1.25l-0.038-1.921l-0.065-0.299
		l-0.417,0.129l-0.341,0.911l-0.883,0.802l-1.042,1.769l-1.534,1.114l-1.642,1.78c-0.937,1.024-2.036,1.931-3.299,2.718
		l-0.583,0.734l-0.888,0.562l-0.828,0.438l-0.764,0.799l-0.947,0.501c-0.312,0.327-0.769,0.559-1.363,0.69
		c-0.866,0.619-1.856,0.94-2.975,0.963l-0.658,0.013c-0.199,0.004-0.479,0.01-0.838,0.017c-0.319,0.006-0.559-0.01-0.719-0.045
		l-1.078-0.04l-1.586-1.469l-1.166-1.478l-0.505-1.25l-0.467-2.392l0.206-1.744l0.56-2.051l-0.134-0.657l0.504-1.871l0.519-1.091
		c0.148-0.521,0.217-1.144,0.203-1.863l1.271-2.486c0.113-0.322,0.407-0.668,0.879-1.037l0.581-1.031l0.704-0.795
		c0.148-0.522,0.461-0.989,0.933-1.398c0.315-0.166,0.54-0.472,0.672-0.914s0.873-0.856,2.226-1.244l-0.3,0.066l0.299-0.126
		c0.115-0.202,0.388-0.607,0.816-1.217l0.722,0.105l0.533-0.371c0.628-0.572,1.304-0.866,2.022-0.88l0.42-0.009l1.547-0.631
		l0.907,0.283l1.08-0.021l0.666,0.347c0.4,0.032,0.724,0.206,0.971,0.521l0.856,0.823l0.242,0.115l0.125,0.236l0.557,0.83
		l0.065,0.297l-0.16,0.957l0.133,0.653l-0.747,1.208l-1.715,0.273l-0.945-1.411l-0.865-0.267l-0.428-0.412l-0.603,0.005
		c-0.199,0.085-0.617,0.292-1.253,0.625l-0.051,0.481l-1.505,0.029c-0.389,0.608-0.824,0.938-1.305,0.986
		c-0.238,0.166-0.477,0.311-0.715,0.435l-0.458,1.149l-0.421,0.068l-0.049,0.54l-0.845-0.003l-0.726,1.293l-0.649,0.433
		l-0.224,0.846l-0.875,1.278l-0.095,1.204l-0.706,0.733l-0.607,2.597l-0.469,0.488l0.086,0.66l-0.687,2.29l0.192,0.716l-0.046,0.722
		c0.288,0.394,0.437,0.812,0.445,1.251l0.422,0.111l0.188,0.354c0.68-0.013,1.12,0.06,1.325,0.215
		c0.354-0.287,1.328-0.606,2.92-0.957c0.229-0.565,0.562-0.981,0.996-1.251c0.435-0.269,1.325-0.776,2.672-1.523l0.181,0.057
		c-0.007-0.319,0.106-0.622,0.342-0.906c0.595-0.253,0.951-0.419,1.07-0.502c0.315-0.206,0.489-0.469,0.524-0.79l0.955-0.259
		l0.589-0.552l1.459-2.069l0.425,0.23c0.036-0.12,0.467-0.669,1.288-1.646l1.406-1.708l0.104-0.782
		c0.472-0.449,1.006-1.74,1.603-3.872l-0.324-1.254l-0.496-0.831l0.342-0.907l-0.492-0.65l-0.137-0.837l-0.192-0.596l0.578-1.092
		c0.633-0.332,1.09-0.503,1.37-0.508c0.36-0.008,0.843,0.164,1.451,0.511l0.435,0.772l0.793,0.585l0.145,1.316
		c0.128,0.357,0.278,0.895,0.453,1.611c0.207,0.356,0.315,0.774,0.325,1.254l0.008,0.42l0.128,0.358l0.677,0.945l-0.158,1.084
		l0.37,0.474c0.126,0.277,0.191,0.576,0.197,0.896c0.006,0.28-0.011,0.501-0.046,0.661l0.662,0.167l-0.509,1.51l0.262,1.136
		c0.208,0.396,0.314,0.754,0.321,1.074c0.006,0.32-0.086,0.722-0.276,1.205l0.366,0.293L421.275,63.281z"/>
	<path fill="#FFFFFF" d="M449.338,56.124L449,57.211c0.021,1.041-0.022,1.861-0.131,2.463l-0.348,0.606l0.013,0.66l-0.291,0.427
		l-0.163,0.842l-0.647,0.674l-0.39,1.508l-0.477,0.19l-0.228,0.664l-0.712,0.435l-0.459,1.028l-0.714,0.375l-0.045,0.721
		l-1.131,0.442c-0.506,0.73-1.137,1.204-1.893,1.418l-0.238,0.065c-0.544,0.851-1.276,1.285-2.195,1.304
		c-0.396,0.248-0.853,0.376-1.372,0.387l-0.592,0.432l-0.597,0.191l-0.768,0.615l-0.78,0.016l-0.835,0.197l-1.029-0.399l-2.584-0.13
		l-0.926-1.361l-1.348-1.354l0.281-0.966l-0.939-2.021l0.284-0.786l-0.208-1.436l0.161-0.904c-0.011-0.56-0.019-0.96-0.023-1.2
		c-0.015-0.758,0.181-1.322,0.588-1.69c0.034-0.4,0.289-1.066,0.769-1.997l0.311-0.006l-0.189-0.416l0.164-0.844l-0.018-0.898
		c0.312-0.367,0.487-0.61,0.525-0.731l-0.197-0.836l-0.005-0.24c0.269-0.565,0.397-1.148,0.386-1.748l1.227-1.764
		c0.195-0.164,0.333-0.286,0.412-0.369l-0.065-0.239l0.24-0.005l0.881-1.037l0.032-1.381l1.488-0.57
		c0.552-0.37,0.9-0.977,1.044-1.82l0.78-0.015c0.435-0.249,0.833-0.377,1.193-0.385c0.359-0.007,0.701,0.067,1.024,0.221l0.66,0.046
		l1.548-0.63l0.855,0.764l0.668,0.406l0.48-0.01l0.909,0.462l0.479-0.01c0.529,0.47,1.142,1.118,1.839,1.944l0.126,0.297
		l0.425,0.232l1.292,1.595l1.195,2.796l0.012,0.601L449.338,56.124z M445.408,57.622l-0.066-0.299
		c-0.286-0.274-0.452-0.568-0.497-0.887l0.173-0.304l-0.562-1.126l0.098-1.141l-0.246-0.294c-0.528-0.389-0.813-0.701-0.857-0.941
		c-0.363-0.151-0.552-0.548-0.564-1.186l-0.361-0.052l-0.743-1.184l-0.549-0.408l-1.269-0.454l-0.483-0.111
		c-0.239,0.005-0.401-0.07-0.484-0.229l-1.173,1.336l-0.747,1.685l-1.247,0.681l-0.166,0.66l-0.595,0.31l-0.209,1.556l-0.714,0.371
		c-0.148,0.561-0.218,1.079-0.208,1.555l-0.941,0.914l0.304,0.173c0.009,0.478-0.185,0.898-0.579,1.265
		c-0.128,0.36-0.299,0.761-0.514,1.203l0.01,0.477l0.005,0.238l0.014,0.715l-0.627,1.623l0.125,0.296l0.033,1.67l-0.223,0.839
		l0.076,0.833l0.555,0.765l0.845,0.281l0.302,0.113l0.479-0.009l1.557-0.031l0.228-0.604l0.239-0.005
		c0.24-0.005,0.381,0.053,0.423,0.172l0.536-0.19l0.482,0.17l0.769-0.56l0.116-0.184l0.536-0.132c0.271-0.448,0.92-0.903,1.95-1.368
		l0.114-0.305l1.182-0.87l0.64-0.98l0.951-0.5l0.057-0.3l0.299-0.666l-0.016-0.776l0.708-0.612l0.232-0.424l0.292-0.365
		c-0.169-0.476-0.256-0.813-0.26-1.013c-0.008-0.359,0.105-0.741,0.338-1.146L445.408,57.622z"/>
	<path fill="#FFFFFF" d="M487.521,47.865c0.007,0.36-0.346,0.707-1.059,1.042c-0.156,0.203-0.454,0.389-0.891,0.557
		c-0.556,0.252-0.951,0.461-1.188,0.625l-1.269-0.396c-0.629,0.492-1.444,0.749-2.444,0.769l-0.724-0.165l-0.531,0.431l-1.62,0.032
		l-1.005,0.738c-0.444-0.15-0.866-0.223-1.266-0.215c-0.118,0.083-0.396,0.169-0.835,0.257c-0.2,0.004-0.421-0.052-0.663-0.167
		l-0.135,2.283l0.033,1.679l0.041,2.097l0.072,2.278l0.204,1.077l-0.013,0.84l0.875,1.784c-0.116,0.124-0.174,0.266-0.171,0.425
		c0.005,0.28,0.449,0.492,1.333,0.634l0.135,0.719l0.424,0.172l0.729,0.467l0.487,0.35c0.397-0.088,0.677-0.134,0.837-0.137
		c0.359-0.008,0.721,0.045,1.084,0.158c0.157-0.082,0.491-0.368,1.003-0.859c0.354-0.326,0.689-0.493,1.011-0.5
		c0.039,0,0.099-0.002,0.18-0.003c0.08-0.002,0.14-0.003,0.18-0.004c0.346-0.736,0.975-1.229,1.891-1.479
		c0.841-0.017,1.545,0.23,2.116,0.739l0.008,0.42c0.027,1.359-0.437,2.228-1.39,2.607c-0.342,0.847-1.093,1.401-2.247,1.665
		l-0.706,0.675l-0.78,0.015l-1.373,0.387c-0.318,0.087-0.776,0.136-1.378,0.148c-0.32,0.006-0.66-0.067-1.022-0.221l-0.78,0.016
		l-2.123-1.098l-0.543-0.169l-1.293-1.656l-0.735-0.765l-1.38-2.973l-0.535-2.811l0.165-0.723l-0.553-0.649l0.284-0.846
		l-0.327-1.314l0.411-0.429l0.105-0.781l-0.194-0.717l0.158-1.083l-0.318-0.954l0.293-0.306l-0.019-0.96l-0.424-0.173l-1.135,0.263
		l-1.093-0.697l-0.18,0.004c-1.2,0.023-1.814-0.613-1.84-1.911l-0.004-0.183l-0.742-1.142l1.118-1.117l1.505,0.209l0.776-0.134
		l1.146,0.277l1.26-0.025l-0.023-1.199l-0.813-1.664l0.771-0.436l-0.317-0.895l0.022-1.86l-0.495-0.77
		c-0.29-0.436-0.438-0.833-0.444-1.192c-0.009-0.439,0.084-0.802,0.279-1.086l0.163-0.843l0.47-0.49
		c1.076-0.221,1.795-0.335,2.154-0.342c1.279-0.025,1.991,0.543,2.135,1.706l-0.175,0.307c0.247,0.356,0.374,0.696,0.381,1.019
		c0.001,0.039-0.018,0.141-0.054,0.301l-0.113,0.365l-0.052,0.424l0.256,0.779l-0.054,0.303l0.136,0.842l-0.524,0.733l0.323,1.201
		l-0.212,1.453l0.491,0.533l-0.458,1.094l1.854-0.337l3.306,0.234l2.631-0.472l0.9,0.042l0.299-0.066l2.34-0.046
		C486.875,46.558,487.503,46.986,487.521,47.865z"/>
	<path fill="#FFFFFF" d="M515.95,68.246c0.031,1.599-0.822,2.416-2.561,2.45c-0.85,0.018-1.481-0.311-1.899-0.98
		c-0.417-0.553-0.78-1.605-1.095-3.161l-0.017-0.84c0.155-0.202,0.232-0.403,0.229-0.603c-0.002-0.08-0.024-0.18-0.066-0.299
		l-0.865-1.244l0.638-1.153l-0.324-1.253l0.285-0.727l-0.016-0.779l-0.014-0.72l-0.201-1.076l0.169-0.544l-0.039-1.979l-0.052-2.58
		l-0.339-1.973l0.285-0.727l-0.453-1.491l-0.478,0.43l-1.322,0.566l-1.771,2.315l-0.729-0.045l-1.055,1.761l-0.169,0.724
		l-0.652,0.313l-0.675,1.032l-0.302,0.666l-0.347,2.145l-1.157,1.337l-0.247,0.841l-0.648,0.49l-0.235,1.438l-1.294,1.102
		l-0.153,2.212l-0.54,0.011l-0.173,0.363l-1.042,1.882l-0.999,1.1l-0.876,1.218l-0.966-0.28l-0.78,0.016l-0.737-0.946l-0.703-2.146
		l-0.063-3.18l-0.2-1.017l0.156-1.203l-0.056-2.819l0.403-0.127l0.173-4.146l0.103-0.782l-0.024-1.26l0.274-0.186l0.183-1.923
		l0.208-0.665l-0.257-0.835l0.174-0.303l-0.124-0.179l0.147-1.684l-0.487-0.41l0.402-0.847l-0.09-1.74l-0.639-1.728l0.409-0.548
		l-0.452-1.611l-0.019-0.96l-0.188-0.417l-0.338-1.914l-0.317-0.892l-0.935-1.723l0.644-0.853l0.579-1.033l0.538-0.01
		c0.875-0.018,1.538,0.291,1.99,0.924l0.85,0.645l0.381,1.074l0.93,0.762l-0.224,0.844l0.505,1.249l0.003,0.12l0.002,0.12
		l0.039,1.979l0.112,2.639l0.454,1.67l-0.286,0.726l0.14,1.019l-0.283,0.845l0.209,1.435l-0.156,1.204l0.005,0.24l0.072,3.658
		l0.017,0.84l-0.352,0.427l-0.141,1.983l-0.223,0.904l0.332,1.613l-0.29,0.486l0.023,1.199c0.438-0.128,0.653-0.373,0.646-0.733
		l0.472-0.488l0.403-0.789l0.098-1.142l0.64-0.974l0.337-1.206l0.819-0.971l0.201-1.139l0.557-0.071l-0.011-0.536l0.056-0.717
		l0.822-0.434l-0.009-0.479l0.597-0.131l0.102-0.956l-0.054-0.477l1.064-0.511l0.267-0.266l-0.139-0.596l0.539-0.192l0.401-1.032
		l0.724-0.015l0.654-0.433c-0.006-0.279,0.011-0.48,0.049-0.602l0.657-0.312c0.711-0.615,1.386-0.989,2.027-1.121l-0.003-0.119
		c1.03-0.541,1.744-0.816,2.145-0.824c0.6-0.012,1.146,0.258,1.637,0.809c0.442,0.151,0.729,0.446,0.857,0.884l0.547,0.349
		l0.196,0.836l0.808,1.364l0.096,4.799l0.041,2.1l0.311,0.534l0.088,4.439l-0.284,0.785l0.023,1.199l0.326,1.314l-0.277,1.146
		c0.183,0.598,0.298,1.096,0.349,1.493l0.714,0.646l0.01,0.48l0.244,0.176C515.834,67.488,515.944,67.967,515.95,68.246z"/>
	<path fill="#FFFFFF" d="M541.239,63.424c0.01,0.479-0.339,1.088-1.044,1.82c-0.188,0.645-0.479,1.171-0.87,1.579l-0.357,0.066
		l-0.638,1.152l-1.077,0.202l-1.124,0.742l-0.579,1.091l-0.66,0.014c-0.438,0.182-0.795,0.292-1.073,0.334l-0.351,0.475
		c-0.12,0.003-0.3,0.006-0.54,0.011c-0.521,0.011-1.014,0.359-1.479,1.049l-0.854-0.702c-0.16,0.003-0.4,0.008-0.721,0.014
		c-0.52,0.011-0.962-0.081-1.325-0.273l-1.021,0.021l-0.485-0.289c-1.524-0.208-2.496-0.764-2.913-1.666l-0.004-0.179l-0.728-0.344
		l-0.38-1.003l-0.729-0.463l-0.019-0.893l-0.771-2.602l-0.042-2.142l0.342-0.959l-0.025-1.248l0.28-0.957l-0.068-0.416l0.406-0.723
		l-0.118,0.123c-0.007-0.36,0.085-0.741,0.277-1.146l-0.006-0.301l-0.208-1.436c-0.014-0.68,0.274-1.286,0.863-1.817
		c0.039-0.081,0.057-0.201,0.054-0.361c-0.003-0.159-0.08-0.488-0.229-0.986c-0.15-0.496-0.227-0.846-0.23-1.045
		c-0.01-0.479,0.101-0.981,0.329-1.507c0.33,0.475,0.795,0.704,1.395,0.692l0.181-0.004c0.076-0.16,0.253-0.344,0.529-0.551
		c0.3-1.005,0.723-1.854,1.269-2.545l0.235-0.245c-0.003-0.159,0.107-0.622,0.333-1.387l0.479-0.009l0.114-0.303l0.478-0.129
		c0.193-0.324,0.32-0.517,0.379-0.578c0.059-0.061,0.483-0.32,1.275-0.775c0.153-0.283,0.389-0.549,0.704-0.794
		c0.157-0.083,0.356-0.167,0.596-0.253l0.231-0.364c1.072-0.382,1.749-0.575,2.029-0.581c0.32-0.006,0.621,0.069,0.904,0.223
		l0.299-0.066l0.425,0.232c0.487,0.35,0.974,0.641,1.457,0.871l1.035,0.76l0.005,0.24c0.935,0.702,1.414,1.713,1.44,3.032
		l-0.168,0.603l0.22,1.978l-0.533,0.369l-0.568,1.572l-1.115,1.282l-0.041,0.961c-1.262,0.946-2.427,1.709-3.495,2.289
		c-0.349,0.567-0.903,0.858-1.663,0.873l-0.179,0.004l-1.127,0.743l-0.96,0.019l-1.428,0.628l-1.09-0.519l-0.12,0.003
		c-0.074,0.323-0.144,0.809-0.211,1.453l-0.473,0.372l-0.046,0.726l-0.339,1.032c0.098,0.965,0.15,1.588,0.156,1.869l-0.196,0.187
		c0.011,0.522,0.002,0.905-0.027,1.147c0.001,0.04-0.015,0.1-0.047,0.182c0.002,0.081,0.003,0.142,0.004,0.181
		c0.007,0.323,0.171,0.58,0.496,0.775c0.13,0.479,0.335,0.777,0.617,0.893l0.427,0.354l1.327,0.335l0.004,0.182l0.481,0.111
		l2.04-0.041l1.196-0.201l0.592-0.427l0.357-0.126l0.583-0.901l0.298-0.066l1.491-0.503c0.153-0.28,0.409-0.522,0.766-0.727
		l0.174-0.301c0.796-0.174,1.248-0.598,1.354-1.272c0.549-0.564,1.263-0.856,2.144-0.874l0.24-0.005
		C540.833,62.152,541.228,62.864,541.239,63.424z M534.957,46.265c-0.002-0.12-0.066-0.358-0.193-0.716l-0.301-0.055l-0.119,0.062
		c-0.04,0.001-0.12,0.002-0.24,0.005c-0.079,0.042-0.159,0.062-0.239,0.064c-0.04,0.001-0.1-0.018-0.181-0.057
		c-0.08,0.002-0.141,0.003-0.18,0.004l-0.593,0.432l-0.538,0.07l-0.298,0.126l-0.992,1.341l-0.65,0.493l-0.927,1.699l-0.533,0.37
		c-0.106,0.682-0.376,1.268-0.806,1.756l-0.231,0.425c0.434-0.288,0.931-0.438,1.491-0.45l0.417-0.188l0.169-0.544l0.842,0.043
		l0.465-0.729l0.359-0.007l0.665,0.228l0.282-0.905l0.42-0.009l-0.014-0.66l0.777-0.195l0.176-0.183l0.109-0.543l0.758-1.156
		C534.927,46.786,534.962,46.545,534.957,46.265z"/>
	<path fill="#FFFFFF" d="M567.408,45.501l-0.441,1.99l-2.213,0.344l-1.185,0.804l-0.787-0.345l-0.831,0.484l-0.894,0.368
		l-0.59,0.423l-0.016,0.232l-1.235,0.648l-0.817,1.11l-0.42,0.009c-0.626,0.693-1.076,1.122-1.353,1.288l-0.812,1.396l-0.298,0.126
		c-0.113,0.321-0.244,0.805-0.391,1.446l-0.833,0.316l-0.346,0.729l-0.468,0.609l-0.099,0.902l-0.479,0.189l0.019,0.9l-0.177,0.182
		c0.124,0.198,0.269,0.415,0.434,0.652l-0.894,0.377l-0.104,0.783l-0.58,1.032l0.375,0.771l-0.759,1.096
		c0.088,0.398,0.134,0.678,0.137,0.837c0.001,0.041,0.003,0.12,0.005,0.24c-0.037,0.121-0.055,0.222-0.054,0.301l0.13,0.538
		l1.042,1.06l-0.753,1.396l-0.708,0.554l-1.663,0.873l-2.238-0.855l-0.027-1.38l-0.25-0.535L547,66.49
		c-0.094-0.638-0.143-1.117-0.149-1.438c-0.002-0.12,0.015-0.279,0.051-0.481c-0.004-0.198-0.007-0.338-0.009-0.419l-0.071-0.599
		c-0.286-0.273-0.432-0.592-0.438-0.951c-0.007-0.32,0.126-0.683,0.398-1.089c-0.004-0.2-0.057-0.799-0.156-1.797l0.176-0.184
		l-0.194-0.776l0.105-0.723l-0.129-0.417l0.152-1.384l-0.371-0.593l0.228-0.665l-0.256-0.774c0.034-0.241,0.049-0.561,0.041-0.961
		c-0.013-0.6-0.101-0.997-0.265-1.195l0.233-0.364l-0.262-1.075l-0.554-0.769l0.281-0.966l-0.248-0.355l-0.269-1.436l-0.01-0.48
		c-0.205-0.235-0.311-0.533-0.317-0.893c-0.016-0.799,0.85-1.497,2.599-2.092l1.506,0.271l0.323,1.132l0.615,0.769l-0.147,1.624
		c0.136,0.798,0.293,1.675,0.472,2.63l0.199,0.957c0.04,0.08,0.086,0.298,0.133,0.657c0.005,0.24-0.091,0.503-0.284,0.786
		l0.203,1.197l-0.094,1.32l-0.229,0.605l0.186,0.235l0.132,0.599c0.234-0.284,0.368-0.588,0.402-0.909l0.221-0.902
		c0.115-0.243,0.292-0.428,0.529-0.551l0.223-0.905l0.83-0.497l0.105-0.723l0.646-0.732l0.462-0.91
		c0.508-0.568,1.002-0.938,1.479-1.108l0.116-0.183l0.522-0.851l0.598-0.132l0.177-0.184l0.232-0.364l0.653-0.374l0.351-0.427
		l0.362,0.054l0.476-0.25l0.231-0.365l0.714-0.374l1.006-0.68l1.431-0.509c0.558-0.09,0.857-0.136,0.897-0.137l0.001,0.06
		c-0.04,0.001-0.06,0.021-0.059,0.061l0.06-0.001c0.159-0.003,0.397-0.087,0.715-0.253c0.197-0.164,0.476-0.25,0.836-0.258
		c0.159-0.003,0.44,0.031,0.842,0.104C566.679,44.116,567.269,44.585,567.408,45.501z"/>
	<path fill="#FFFFFF" d="M587.308,62.511c0.01,0.479-0.339,1.087-1.044,1.82c-0.188,0.645-0.479,1.171-0.869,1.578l-0.357,0.067
		l-0.638,1.152l-1.077,0.202l-1.125,0.742l-0.579,1.091l-0.66,0.014c-0.437,0.182-0.794,0.292-1.072,0.334l-0.351,0.475
		c-0.12,0.002-0.3,0.006-0.54,0.011c-0.521,0.01-1.014,0.359-1.48,1.049l-0.854-0.703c-0.16,0.004-0.4,0.008-0.721,0.015
		c-0.519,0.01-0.961-0.082-1.324-0.273l-1.021,0.02l-0.485-0.288c-1.525-0.208-2.496-0.765-2.913-1.666l-0.004-0.179l-0.728-0.344
		l-0.38-1.003l-0.729-0.463l-0.019-0.893l-0.771-2.602l-0.042-2.142l0.342-0.96l-0.025-1.248l0.281-0.957l-0.068-0.415l0.406-0.723
		l-0.118,0.122c-0.007-0.36,0.085-0.741,0.277-1.146l-0.006-0.301l-0.208-1.435c-0.014-0.68,0.274-1.286,0.863-1.817
		c0.039-0.081,0.057-0.201,0.054-0.361c-0.003-0.159-0.08-0.488-0.229-0.986c-0.15-0.496-0.227-0.846-0.23-1.045
		c-0.01-0.479,0.101-0.981,0.329-1.507c0.33,0.474,0.795,0.704,1.394,0.692l0.181-0.004c0.076-0.16,0.253-0.344,0.529-0.551
		c0.3-1.005,0.723-1.854,1.27-2.546l0.235-0.244c-0.003-0.159,0.107-0.622,0.333-1.387l0.479-0.01l0.114-0.302l0.478-0.13
		c0.193-0.323,0.32-0.516,0.379-0.578c0.059-0.061,0.483-0.318,1.274-0.775c0.153-0.282,0.389-0.548,0.704-0.793
		c0.157-0.084,0.356-0.168,0.596-0.252l0.232-0.365c1.072-0.383,1.749-0.575,2.029-0.581c0.32-0.007,0.62,0.069,0.903,0.223
		l0.299-0.066l0.425,0.231c0.487,0.352,0.974,0.642,1.458,0.872l1.035,0.761l0.005,0.238c0.935,0.703,1.414,1.713,1.44,3.032
		l-0.168,0.604l0.22,1.977l-0.533,0.37l-0.568,1.571l-1.115,1.283l-0.041,0.961c-1.263,0.946-2.428,1.709-3.495,2.289
		c-0.349,0.567-0.903,0.857-1.663,0.873l-0.18,0.003l-1.127,0.744l-0.959,0.019l-1.428,0.628l-1.09-0.519l-0.12,0.003
		c-0.075,0.323-0.145,0.809-0.212,1.452l-0.473,0.373l-0.046,0.725l-0.339,1.033c0.098,0.965,0.15,1.587,0.156,1.868l-0.196,0.187
		c0.011,0.522,0.002,0.906-0.027,1.147c0.001,0.04-0.015,0.101-0.047,0.182c0.002,0.081,0.003,0.142,0.004,0.181
		c0.007,0.323,0.171,0.581,0.496,0.776c0.13,0.479,0.335,0.777,0.617,0.892l0.428,0.355l1.327,0.335l0.004,0.182l0.481,0.11
		l2.039-0.04l1.197-0.201l0.592-0.428l0.357-0.125l0.583-0.901l0.298-0.066l1.49-0.504c0.153-0.279,0.409-0.521,0.766-0.726
		l0.174-0.301c0.797-0.174,1.249-0.599,1.355-1.272c0.549-0.564,1.263-0.856,2.143-0.874l0.24-0.005
		C586.902,61.239,587.297,61.951,587.308,62.511z M581.026,45.352c-0.002-0.12-0.066-0.358-0.193-0.717l-0.301-0.055l-0.119,0.063
		c-0.04,0.001-0.12,0.002-0.24,0.005c-0.078,0.041-0.158,0.062-0.238,0.064c-0.04,0-0.1-0.018-0.181-0.057
		c-0.08,0.002-0.141,0.003-0.18,0.004l-0.593,0.432l-0.538,0.07l-0.298,0.126l-0.993,1.341l-0.65,0.493l-0.927,1.699l-0.532,0.37
		c-0.106,0.682-0.376,1.268-0.806,1.756l-0.231,0.425c0.434-0.288,0.931-0.438,1.49-0.45l0.417-0.188l0.169-0.544l0.842,0.043
		l0.465-0.729l0.36-0.007l0.665,0.227l0.282-0.905l0.42-0.008l-0.014-0.66l0.777-0.195l0.176-0.184l0.109-0.542l0.757-1.156
		C580.997,45.873,581.032,45.632,581.026,45.352z"/>
</g>
</svg>
