<?xml version="1.0" encoding="utf-8"?>
<!-- Generator: Adobe Illustrator 15.0.2, SVG Export Plug-In . SVG Version: 6.00 Build 0)  -->
<!DOCTYPE svg PUBLIC "-//W3C//DTD SVG 1.1//EN" "http://www.w3.org/Graphics/SVG/1.1/DTD/svg11.dtd">
<svg version="1.1" id="Layer_1" xmlns="http://www.w3.org/2000/svg" xmlns:xlink="http://www.w3.org/1999/xlink" x="0px" y="0px"
	 width="295.125px" height="168.401px" viewBox="0 0 295.125 168.401" enable-background="new 0 0 295.125 168.401"
	 xml:space="preserve">
<g>
	<path d="M14.148,94.839c0,1.44-0.175,2.922-0.522,4.446c-0.348,1.524-0.84,2.91-1.476,4.158c-0.637,1.249-1.417,2.268-2.34,3.06
		c-0.925,0.792-1.963,1.188-3.114,1.188c-1.248,0-2.173-0.366-2.772-1.098c-0.6-0.732-0.948-1.65-1.044-2.754H2.808l-0.539,3.24H0
		l4.752-27.216h2.304L4.86,92.355h0.071c0.48-1.08,1.122-1.974,1.927-2.682c0.804-0.708,1.746-1.062,2.826-1.062
		c1.487,0,2.604,0.57,3.348,1.71C13.775,91.461,14.148,92.967,14.148,94.839z M11.736,95.106c0-1.313-0.223-2.376-0.666-3.188
		c-0.444-0.812-1.146-1.218-2.106-1.218c-0.84,0-1.59,0.34-2.25,1.021s-1.224,1.534-1.691,2.562c-0.469,1.027-0.828,2.15-1.08,3.368
		s-0.378,2.353-0.378,3.403c0,1.362,0.216,2.46,0.647,3.296c0.433,0.836,1.14,1.254,2.124,1.254c0.864,0,1.632-0.352,2.304-1.057
		s1.236-1.583,1.692-2.633s0.804-2.185,1.044-3.404C11.616,97.292,11.736,96.157,11.736,95.106z"/>
	<path d="M20.447,111.003c-0.648,1.512-1.35,2.676-2.106,3.492c-0.756,0.815-1.77,1.224-3.042,1.224
		c-0.623,0-1.14-0.084-1.548-0.252l0.468-2.124c0.288,0.144,0.661,0.216,1.116,0.216c0.721,0,1.29-0.247,1.71-0.738
		c0.42-0.492,0.811-1.158,1.17-1.998l1.332-3.24l-1.943-18.36h2.412l1.188,15.156h0.072l6.156-15.156h2.411L20.447,111.003z"/>
	<path d="M49.355,83.679h-4.932l-4.068,23.4h-2.448l4.104-23.4H37.08l0.359-2.088h12.276L49.355,83.679z"/>
	<path d="M61.38,92.967c0,0.336-0.024,0.738-0.072,1.206c-0.049,0.468-0.108,0.93-0.18,1.386l-2.017,11.52h-2.34l1.98-11.52
		c0.048-0.336,0.096-0.684,0.144-1.044s0.072-0.708,0.072-1.044c0-0.744-0.156-1.392-0.468-1.944
		c-0.312-0.552-0.9-0.828-1.765-0.828c-0.6,0-1.158,0.168-1.674,0.504c-0.517,0.336-0.984,0.78-1.404,1.332
		c-0.42,0.552-0.78,1.194-1.08,1.926c-0.3,0.732-0.521,1.506-0.666,2.322l-1.8,10.296h-2.34l4.716-27.216h2.34l-2.231,12.672h0.072
		c0.216-0.504,0.491-0.996,0.827-1.476c0.336-0.48,0.714-0.9,1.135-1.26c0.419-0.36,0.888-0.648,1.403-0.864
		c0.517-0.216,1.062-0.324,1.639-0.324c0.695,0,1.277,0.126,1.746,0.378c0.468,0.252,0.846,0.582,1.134,0.99
		c0.288,0.409,0.498,0.876,0.63,1.404S61.38,92.439,61.38,92.967z"/>
	<path d="M77.688,95.199c0,1.512-0.186,3.012-0.558,4.5c-0.372,1.488-0.906,2.826-1.602,4.014c-0.696,1.188-1.536,2.148-2.521,2.88
		c-0.984,0.731-2.076,1.098-3.275,1.098c-1.584,0-2.821-0.594-3.708-1.782c-0.889-1.188-1.332-2.778-1.332-4.77
		c0-1.512,0.186-3.018,0.558-4.518c0.372-1.5,0.9-2.844,1.584-4.032c0.684-1.188,1.512-2.147,2.484-2.88
		c0.972-0.732,2.069-1.098,3.294-1.098c1.632,0,2.886,0.6,3.762,1.8C77.25,91.611,77.688,93.208,77.688,95.199z M75.276,95.296
		c0-1.365-0.228-2.472-0.682-3.322c-0.454-0.85-1.183-1.275-2.187-1.275c-0.836,0-1.583,0.348-2.24,1.042
		c-0.656,0.694-1.212,1.562-1.666,2.604c-0.455,1.042-0.801,2.173-1.04,3.394c-0.238,1.221-0.358,2.358-0.358,3.412
		c0,1.341,0.222,2.418,0.664,3.232c0.441,0.814,1.164,1.221,2.168,1.221c0.86,0,1.619-0.334,2.276-1.005
		c0.656-0.671,1.212-1.521,1.666-2.55c0.454-1.03,0.801-2.149,1.04-3.358C75.156,97.48,75.276,96.35,75.276,95.296z"/>
	<path d="M102.636,92.967c0,0.336-0.025,0.738-0.073,1.206c-0.049,0.468-0.11,0.93-0.184,1.386l-2.01,11.52h-2.378l2.016-11.52
		c0.048-0.336,0.096-0.684,0.145-1.044c0.048-0.36,0.072-0.708,0.072-1.044c0-0.744-0.162-1.392-0.486-1.944
		s-0.918-0.828-1.782-0.828c-0.528,0-1.044,0.144-1.548,0.432c-0.504,0.288-0.96,0.679-1.368,1.17
		c-0.408,0.492-0.756,1.056-1.044,1.692c-0.288,0.636-0.492,1.291-0.612,1.962l-1.907,11.124H89.1l2.016-11.52
		c0.048-0.336,0.096-0.689,0.144-1.062c0.048-0.372,0.072-0.738,0.072-1.098c0-0.696-0.156-1.319-0.468-1.872
		c-0.312-0.552-0.9-0.828-1.764-0.828c-0.601,0-1.158,0.168-1.675,0.504c-0.516,0.336-0.984,0.78-1.403,1.332
		c-0.42,0.552-0.774,1.194-1.062,1.926c-0.288,0.732-0.504,1.506-0.647,2.322l-1.8,10.296h-2.341l2.341-13.32
		c0.023-0.216,0.071-0.54,0.144-0.972s0.138-0.882,0.198-1.35c0.06-0.468,0.119-0.906,0.18-1.314c0.06-0.408,0.102-0.708,0.126-0.9
		h2.304c-0.048,0.384-0.12,0.906-0.216,1.566c-0.096,0.661-0.192,1.266-0.288,1.818h0.072c0.216-0.527,0.491-1.031,0.828-1.512
		c0.336-0.48,0.72-0.906,1.152-1.278c0.432-0.372,0.899-0.666,1.403-0.882s1.044-0.324,1.62-0.324c1.128,0,1.95,0.288,2.466,0.864
		s0.834,1.272,0.954,2.088c0.048,0.24,0.072,0.474,0.072,0.702c0,0.229,0,0.474,0,0.738H93.6c0.217-0.576,0.493-1.127,0.831-1.656
		c0.338-0.528,0.729-0.996,1.175-1.404c0.445-0.408,0.945-0.731,1.5-0.972c0.554-0.24,1.156-0.36,1.808-0.36
		c0.698,0,1.282,0.126,1.752,0.378s0.85,0.582,1.139,0.99c0.289,0.409,0.5,0.876,0.633,1.404S102.636,92.439,102.636,92.967z"/>
	<path d="M117.287,93.291c0,0.409-0.024,0.816-0.072,1.224c-0.049,0.408-0.12,0.852-0.216,1.332l-1.261,7.416
		c-0.048,0.264-0.096,0.57-0.144,0.918c-0.049,0.348-0.103,0.708-0.162,1.08c-0.061,0.372-0.108,0.72-0.144,1.044
		c-0.036,0.324-0.055,0.582-0.055,0.774h-1.979c0.023-0.408,0.084-0.954,0.18-1.638c0.096-0.684,0.192-1.253,0.288-1.71h-0.072
		c-0.432,1.152-1.044,2.076-1.836,2.772s-1.788,1.044-2.987,1.044c-1.08,0-1.95-0.354-2.61-1.062c-0.66-0.708-0.99-1.733-0.99-3.078
		c0-1.392,0.252-2.55,0.756-3.474c0.504-0.924,1.152-1.662,1.944-2.214c0.792-0.552,1.68-0.948,2.664-1.188
		c0.983-0.24,1.944-0.36,2.88-0.36h1.332c0.12-0.72,0.203-1.26,0.252-1.62c0.048-0.36,0.072-0.648,0.072-0.864
		c0-1.056-0.229-1.83-0.685-2.322c-0.456-0.492-1.104-0.738-1.943-0.738c-0.696,0-1.362,0.18-1.998,0.54
		c-0.637,0.36-1.194,0.816-1.674,1.368l-1.08-1.44c0.623-0.768,1.403-1.374,2.34-1.818c0.936-0.444,1.859-0.666,2.771-0.666
		c1.513,0,2.628,0.414,3.349,1.242C116.927,90.681,117.287,91.828,117.287,93.291z M113.219,97.971c-0.72,0-1.422,0.078-2.106,0.234
		c-0.684,0.156-1.302,0.432-1.854,0.828c-0.553,0.396-0.996,0.924-1.332,1.584c-0.337,0.66-0.504,1.482-0.504,2.466
		c0,0.84,0.203,1.476,0.612,1.908c0.407,0.432,0.923,0.648,1.548,0.648c0.695,0,1.308-0.204,1.836-0.612
		c0.527-0.408,0.983-0.924,1.368-1.548c0.383-0.624,0.695-1.308,0.936-2.052c0.239-0.744,0.432-1.464,0.576-2.16l0.252-1.296
		H113.219z"/>
	<path d="M129.635,91.923c-0.312-0.48-0.702-0.84-1.17-1.08c-0.468-0.24-1.05-0.36-1.746-0.36c-0.888,0-1.644,0.318-2.268,0.954
		c-0.624,0.636-0.937,1.471-0.937,2.502c0,0.792,0.192,1.404,0.576,1.836c0.384,0.432,0.948,0.853,1.692,1.26
		c0.455,0.264,0.882,0.546,1.278,0.846c0.396,0.301,0.749,0.636,1.062,1.008c0.312,0.373,0.558,0.792,0.738,1.26
		c0.18,0.468,0.27,1.002,0.27,1.602c0,0.984-0.162,1.842-0.485,2.574c-0.324,0.732-0.757,1.35-1.297,1.854
		c-0.539,0.504-1.17,0.882-1.89,1.134s-1.476,0.378-2.268,0.378c-1.032,0-1.962-0.222-2.79-0.666s-1.458-1.013-1.891-1.71
		l1.584-1.476c0.336,0.504,0.762,0.942,1.278,1.314c0.516,0.372,1.193,0.558,2.034,0.558c0.936,0,1.739-0.318,2.412-0.954
		c0.671-0.636,1.008-1.518,1.008-2.646c0-0.456-0.078-0.858-0.234-1.206c-0.156-0.348-0.359-0.666-0.611-0.954
		s-0.54-0.54-0.864-0.756c-0.324-0.216-0.654-0.42-0.99-0.612c-0.792-0.408-1.471-0.959-2.034-1.656
		c-0.563-0.696-0.846-1.608-0.846-2.736c0-0.84,0.149-1.602,0.45-2.286c0.3-0.684,0.707-1.272,1.224-1.764
		c0.516-0.492,1.122-0.87,1.818-1.134c0.695-0.264,1.439-0.396,2.231-0.396c0.984,0,1.806,0.168,2.467,0.504
		c0.659,0.336,1.182,0.744,1.565,1.224L129.635,91.923z"/>
	<path d="M148.823,107.079h-9.721l4.429-25.488h2.447l-4.031,23.22h7.271L148.823,107.079z"/>
	<path d="M154.006,107.079h-2.304l3.096-17.856h2.305L154.006,107.079z M158.398,83.319c0,0.552-0.168,1.014-0.504,1.386
		c-0.337,0.373-0.756,0.558-1.261,0.558c-0.432,0-0.768-0.138-1.008-0.414c-0.24-0.276-0.359-0.618-0.359-1.026
		c0-0.48,0.162-0.924,0.485-1.332c0.324-0.408,0.738-0.612,1.242-0.612c0.456,0,0.804,0.132,1.044,0.396
		C158.278,82.54,158.398,82.887,158.398,83.319z"/>
	<path d="M173.015,92.967c0,0.336-0.03,0.738-0.09,1.206c-0.061,0.468-0.126,0.93-0.198,1.386l-1.979,11.52h-2.341l1.98-11.52
		c0.048-0.336,0.096-0.684,0.144-1.044s0.072-0.708,0.072-1.044c0-0.744-0.156-1.392-0.468-1.944
		c-0.312-0.552-0.9-0.828-1.764-0.828c-0.601,0-1.158,0.168-1.675,0.504c-0.516,0.336-0.984,0.78-1.403,1.332
		c-0.421,0.552-0.78,1.194-1.08,1.926c-0.301,0.732-0.522,1.506-0.666,2.322l-1.8,10.296h-2.341l2.341-13.32
		c0.023-0.216,0.071-0.534,0.144-0.954s0.138-0.864,0.198-1.332c0.06-0.468,0.119-0.912,0.18-1.332
		c0.06-0.419,0.102-0.726,0.126-0.918h2.304c-0.048,0.384-0.12,0.9-0.216,1.548s-0.192,1.26-0.288,1.836h0.072
		c0.216-0.527,0.491-1.031,0.828-1.512c0.336-0.48,0.72-0.906,1.152-1.278c0.432-0.372,0.899-0.666,1.403-0.882
		s1.044-0.324,1.62-0.324c0.696,0,1.284,0.126,1.764,0.378c0.48,0.252,0.864,0.582,1.152,0.99c0.288,0.409,0.498,0.876,0.63,1.404
		S173.015,92.439,173.015,92.967z"/>
	<path d="M198.61,87.315c0,1.296-0.181,2.46-0.54,3.492c-0.36,1.032-0.87,1.908-1.53,2.628c-0.66,0.72-1.452,1.272-2.376,1.656
		c-0.925,0.384-1.938,0.576-3.042,0.576h-3.708l-1.98,11.412h-2.412l4.429-25.488h5.436c0.815,0,1.572,0.114,2.269,0.342
		c0.695,0.229,1.301,0.582,1.817,1.062c0.516,0.48,0.918,1.08,1.206,1.8C198.466,85.515,198.61,86.355,198.61,87.315z
		 M196.198,87.567c0-1.224-0.307-2.178-0.918-2.862c-0.612-0.684-1.53-1.026-2.754-1.026h-3.061l-1.692,9.9h3.312
		c1.535,0,2.771-0.534,3.708-1.602C195.729,90.91,196.198,89.439,196.198,87.567z"/>
	<path d="M210.957,94.407c0,0.456-0.03,1.002-0.09,1.638c-0.06,0.636-0.185,1.506-0.376,2.61h-9.434
		c-0.145,0.84-0.217,1.656-0.217,2.448c0,1.344,0.252,2.412,0.757,3.204c0.504,0.792,1.271,1.188,2.304,1.188
		c0.84,0,1.565-0.264,2.178-0.792c0.612-0.528,1.122-1.164,1.53-1.908l1.691,1.08c-0.624,1.08-1.392,1.986-2.304,2.718
		c-0.912,0.731-2.028,1.098-3.348,1.098c-1.656,0-2.94-0.57-3.853-1.71s-1.367-2.729-1.367-4.77c0-1.463,0.18-2.939,0.54-4.428
		c0.359-1.488,0.882-2.838,1.565-4.05c0.685-1.211,1.512-2.202,2.484-2.97c0.972-0.768,2.069-1.152,3.294-1.152
		c0.84,0,1.554,0.144,2.142,0.432s1.067,0.696,1.44,1.224c0.371,0.528,0.642,1.146,0.81,1.854
		C210.873,92.829,210.957,93.591,210.957,94.407z M208.762,94.479c0-1.128-0.211-2.04-0.631-2.736
		c-0.42-0.696-1.086-1.044-1.998-1.044c-0.696,0-1.308,0.21-1.836,0.63c-0.527,0.42-0.989,0.942-1.386,1.566
		c-0.396,0.625-0.72,1.284-0.972,1.98c-0.252,0.696-0.427,1.309-0.522,1.836h7.092c0.072-0.456,0.132-0.857,0.181-1.206
		C208.737,95.158,208.762,94.815,208.762,94.479z"/>
	<path d="M224.458,107.079h-2.268l0.575-3.276h-0.035c-0.48,1.104-1.123,2.028-1.927,2.772s-1.817,1.116-3.042,1.116
		c-1.464,0-2.544-0.582-3.239-1.746c-0.696-1.164-1.044-2.694-1.044-4.59c0-1.44,0.167-2.916,0.504-4.428
		c0.336-1.512,0.828-2.886,1.476-4.122c0.648-1.236,1.44-2.244,2.376-3.024c0.937-0.78,1.992-1.17,3.168-1.17
		c1.128,0,1.998,0.342,2.61,1.026c0.611,0.684,0.966,1.566,1.062,2.646h0.072l2.16-12.42h2.304L224.458,107.079z M224.026,95.296
		c0-1.365-0.222-2.472-0.663-3.322c-0.442-0.85-1.142-1.275-2.097-1.275c-0.86,0-1.625,0.348-2.294,1.042
		c-0.67,0.694-1.23,1.562-1.685,2.604c-0.455,1.042-0.801,2.179-1.04,3.412c-0.238,1.233-0.358,2.376-0.358,3.429
		c0,1.317,0.222,2.382,0.664,3.196c0.441,0.814,1.141,1.221,2.096,1.221c0.836,0,1.583-0.341,2.24-1.023
		c0.657-0.683,1.219-1.532,1.685-2.55s0.824-2.131,1.075-3.34S224.026,96.35,224.026,95.296z"/>
	<path d="M242.565,94.407c0,0.456-0.03,1.002-0.09,1.638c-0.06,0.636-0.185,1.506-0.376,2.61h-9.434
		c-0.145,0.84-0.217,1.656-0.217,2.448c0,1.344,0.252,2.412,0.757,3.204c0.504,0.792,1.271,1.188,2.304,1.188
		c0.84,0,1.565-0.264,2.178-0.792c0.612-0.528,1.122-1.164,1.53-1.908l1.691,1.08c-0.624,1.08-1.392,1.986-2.304,2.718
		c-0.912,0.731-2.028,1.098-3.348,1.098c-1.656,0-2.94-0.57-3.853-1.71s-1.367-2.729-1.367-4.77c0-1.463,0.18-2.939,0.54-4.428
		c0.359-1.488,0.882-2.838,1.565-4.05c0.685-1.211,1.512-2.202,2.484-2.97c0.972-0.768,2.069-1.152,3.294-1.152
		c0.84,0,1.554,0.144,2.142,0.432s1.067,0.696,1.44,1.224c0.371,0.528,0.642,1.146,0.81,1.854
		C242.481,92.829,242.565,93.591,242.565,94.407z M240.37,94.479c0-1.128-0.211-2.04-0.631-2.736
		c-0.42-0.696-1.086-1.044-1.998-1.044c-0.696,0-1.308,0.21-1.836,0.63c-0.527,0.42-0.989,0.942-1.386,1.566
		c-0.396,0.625-0.72,1.284-0.972,1.98c-0.252,0.696-0.427,1.309-0.522,1.836h7.092c0.072-0.456,0.132-0.857,0.181-1.206
		C240.346,95.158,240.37,94.815,240.37,94.479z"/>
	<path d="M254.266,91.131c-0.192-0.047-0.385-0.072-0.576-0.072c-0.601,0-1.164,0.204-1.692,0.612
		c-0.527,0.409-1.002,0.936-1.422,1.584c-0.42,0.648-0.78,1.386-1.08,2.214c-0.3,0.828-0.521,1.662-0.666,2.502l-1.584,9.108h-2.376
		l2.341-13.32c0.023-0.216,0.071-0.54,0.144-0.972s0.144-0.882,0.216-1.35c0.072-0.468,0.138-0.906,0.198-1.314
		c0.06-0.408,0.102-0.708,0.126-0.9h2.268c-0.023,0.192-0.06,0.462-0.107,0.81c-0.049,0.348-0.108,0.72-0.181,1.116
		c-0.071,0.396-0.144,0.78-0.216,1.152c-0.071,0.372-0.12,0.666-0.144,0.882h0.107c0.576-1.536,1.29-2.664,2.143-3.384
		c0.852-0.72,1.722-1.08,2.609-1.08c0.192,0,0.324,0.012,0.396,0.036L254.266,91.131z"/>
	<path d="M263.913,91.923c-0.312-0.48-0.702-0.84-1.17-1.08c-0.468-0.24-1.05-0.36-1.746-0.36c-0.888,0-1.644,0.318-2.268,0.954
		c-0.624,0.636-0.937,1.471-0.937,2.502c0,0.792,0.192,1.404,0.576,1.836c0.384,0.432,0.948,0.853,1.692,1.26
		c0.455,0.264,0.882,0.546,1.278,0.846c0.396,0.301,0.749,0.636,1.062,1.008c0.312,0.373,0.558,0.792,0.738,1.26
		c0.18,0.468,0.27,1.002,0.27,1.602c0,0.984-0.162,1.842-0.485,2.574c-0.324,0.732-0.757,1.35-1.297,1.854
		c-0.539,0.504-1.17,0.882-1.89,1.134s-1.476,0.378-2.268,0.378c-1.032,0-1.962-0.222-2.79-0.666s-1.458-1.013-1.891-1.71
		l1.584-1.476c0.336,0.504,0.762,0.942,1.278,1.314c0.516,0.372,1.193,0.558,2.034,0.558c0.936,0,1.739-0.318,2.412-0.954
		c0.671-0.636,1.008-1.518,1.008-2.646c0-0.456-0.078-0.858-0.234-1.206c-0.156-0.348-0.359-0.666-0.611-0.954
		s-0.54-0.54-0.864-0.756c-0.324-0.216-0.654-0.42-0.99-0.612c-0.792-0.408-1.471-0.959-2.034-1.656
		c-0.563-0.696-0.846-1.608-0.846-2.736c0-0.84,0.149-1.602,0.45-2.286c0.3-0.684,0.707-1.272,1.224-1.764
		c0.516-0.492,1.122-0.87,1.818-1.134c0.695-0.264,1.439-0.396,2.231-0.396c0.984,0,1.806,0.168,2.467,0.504
		c0.659,0.336,1.182,0.744,1.565,1.224L263.913,91.923z"/>
	<path d="M279.213,94.407c0,0.456-0.03,1.002-0.09,1.638c-0.06,0.636-0.185,1.506-0.376,2.61h-9.434
		c-0.145,0.84-0.217,1.656-0.217,2.448c0,1.344,0.252,2.412,0.757,3.204c0.504,0.792,1.271,1.188,2.304,1.188
		c0.84,0,1.565-0.264,2.178-0.792c0.612-0.528,1.122-1.164,1.53-1.908l1.691,1.08c-0.624,1.08-1.392,1.986-2.304,2.718
		c-0.912,0.731-2.028,1.098-3.348,1.098c-1.656,0-2.94-0.57-3.853-1.71s-1.367-2.729-1.367-4.77c0-1.463,0.18-2.939,0.54-4.428
		c0.359-1.488,0.882-2.838,1.565-4.05c0.685-1.211,1.512-2.202,2.484-2.97c0.972-0.768,2.069-1.152,3.294-1.152
		c0.84,0,1.554,0.144,2.142,0.432s1.067,0.696,1.44,1.224c0.371,0.528,0.642,1.146,0.81,1.854
		C279.129,92.829,279.213,93.591,279.213,94.407z M277.018,94.479c0-1.128-0.211-2.04-0.631-2.736
		c-0.42-0.696-1.086-1.044-1.998-1.044c-0.696,0-1.308,0.21-1.836,0.63c-0.527,0.42-0.989,0.942-1.386,1.566
		c-0.396,0.625-0.72,1.284-0.972,1.98c-0.252,0.696-0.427,1.309-0.522,1.836h7.092c0.072-0.456,0.132-0.857,0.181-1.206
		C276.993,95.158,277.018,94.815,277.018,94.479z"/>
	<path d="M295.125,92.967c0,0.336-0.03,0.738-0.09,1.206c-0.061,0.468-0.126,0.93-0.198,1.386l-1.979,11.52h-2.341l1.98-11.52
		c0.048-0.336,0.096-0.684,0.144-1.044s0.072-0.708,0.072-1.044c0-0.744-0.156-1.392-0.468-1.944
		c-0.312-0.552-0.9-0.828-1.764-0.828c-0.601,0-1.158,0.168-1.675,0.504c-0.516,0.336-0.984,0.78-1.403,1.332
		c-0.421,0.552-0.78,1.194-1.08,1.926c-0.301,0.732-0.522,1.506-0.666,2.322l-1.8,10.296h-2.341l2.341-13.32
		c0.023-0.216,0.071-0.534,0.144-0.954s0.138-0.864,0.198-1.332c0.06-0.468,0.119-0.912,0.18-1.332
		c0.06-0.419,0.102-0.726,0.126-0.918h2.304c-0.048,0.384-0.12,0.9-0.216,1.548s-0.192,1.26-0.288,1.836h0.072
		c0.216-0.527,0.491-1.031,0.828-1.512c0.336-0.48,0.72-0.906,1.152-1.278c0.432-0.372,0.899-0.666,1.403-0.882
		s1.044-0.324,1.62-0.324c0.696,0,1.284,0.126,1.764,0.378c0.48,0.252,0.864,0.582,1.152,0.99c0.288,0.409,0.498,0.876,0.63,1.404
		S295.125,92.439,295.125,92.967z"/>
</g>
<rect x="152.704" fill="none" width="107" height="168.401"/>
</svg>
