<?xml version="1.0" encoding="utf-8"?>
<!-- Generator: Adobe Illustrator 15.0.2, SVG Export Plug-In . SVG Version: 6.00 Build 0)  -->
<!DOCTYPE svg PUBLIC "-//W3C//DTD SVG 1.1//EN" "http://www.w3.org/Graphics/SVG/1.1/DTD/svg11.dtd">
<svg version="1.1" id="Layer_1" xmlns="http://www.w3.org/2000/svg" xmlns:xlink="http://www.w3.org/1999/xlink" x="0px" y="0px"
	 width="461.45px" height="168.401px" viewBox="0 0 461.45 168.401" enable-background="new 0 0 461.45 168.401"
	 xml:space="preserve">
<g>
	<path d="M73.368,69.927c0,2.352-0.349,4.428-1.044,6.228c-0.696,1.8-1.62,3.301-2.772,4.5c-1.152,1.2-2.484,2.113-3.996,2.736
		c-1.512,0.625-3.084,0.936-4.716,0.936h-7.488v22.752h-4.968V56.103h12.024c1.487,0,3,0.216,4.536,0.648
		c1.536,0.432,2.927,1.188,4.176,2.268c1.248,1.08,2.268,2.509,3.06,4.284C72.972,65.08,73.368,67.288,73.368,69.927z M68.4,69.964
		c0-1.674-0.216-3.121-0.648-4.34c-0.432-1.22-1.033-2.212-1.8-2.977c-0.768-0.765-1.645-1.328-2.628-1.687
		c-0.984-0.358-2.052-0.538-3.204-0.538h-6.768v19.584h6.84c2.255,0,4.187-0.825,5.796-2.475C67.595,75.883,68.4,73.359,68.4,69.964
		z"/>
	<path d="M93.599,107.079c-0.048-0.384-0.084-0.864-0.108-1.44c-0.025-0.576-0.048-1.188-0.072-1.836
		c-0.024-0.648-0.036-1.271-0.036-1.872c0-0.6,0-1.116,0-1.548h-0.144c-1.201,5.088-4.081,7.632-8.64,7.632
		c-1.008,0-2.016-0.192-3.024-0.576c-1.008-0.383-1.92-1.008-2.736-1.872c-0.816-0.864-1.488-1.955-2.016-3.276
		c-0.529-1.319-0.792-2.916-0.792-4.788c0-2.592,0.456-4.68,1.368-6.264c0.912-1.584,2.063-2.832,3.456-3.744
		c1.392-0.911,2.916-1.523,4.572-1.836c1.656-0.312,3.228-0.468,4.716-0.468h2.808v-1.872c0-3.12-0.576-5.4-1.728-6.84
		s-2.712-2.16-4.68-2.16c-1.344,0-2.592,0.36-3.744,1.08c-1.152,0.72-2.137,1.632-2.952,2.736l-2.52-2.952
		c1.104-1.584,2.543-2.808,4.32-3.672c1.775-0.864,3.552-1.296,5.328-1.296c3.744,0,6.408,1.224,7.992,3.672
		c1.584,2.448,2.376,6.024,2.376,10.728v14.832c0,0.48,0.011,1.08,0.036,1.8c0.024,0.72,0.047,1.453,0.072,2.196
		c0.023,0.745,0.06,1.44,0.108,2.088c0.047,0.648,0.096,1.164,0.144,1.548H93.599z M93.023,88.935h-2.88
		c-1.152,0-2.304,0.108-3.456,0.324c-1.152,0.216-2.172,0.624-3.06,1.224c-0.889,0.601-1.62,1.429-2.196,2.484
		c-0.576,1.056-0.864,2.424-0.864,4.104c0,2.496,0.551,4.296,1.656,5.4c1.104,1.104,2.304,1.656,3.6,1.656
		c1.343,0,2.484-0.407,3.42-1.224c0.936-0.816,1.68-1.848,2.232-3.096c0.551-1.248,0.947-2.616,1.188-4.104
		c0.24-1.487,0.36-2.927,0.36-4.32V88.935z"/>
	<path d="M125.999,107.079v-23.04c0-1.104-0.061-2.22-0.18-3.348c-0.12-1.127-0.385-2.16-0.792-3.096
		c-0.408-0.936-0.984-1.703-1.728-2.304c-0.745-0.6-1.717-0.9-2.916-0.9c-1.2,0-2.268,0.324-3.204,0.972s-1.728,1.537-2.376,2.664
		c-0.648,1.128-1.152,2.424-1.512,3.888c-0.36,1.465-0.54,2.988-0.54,4.572v20.592h-4.752V80.367c0-0.768-0.012-1.595-0.036-2.484
		c-0.024-0.888-0.048-1.752-0.072-2.592c-0.025-0.839-0.048-1.607-0.072-2.304c-0.024-0.695-0.061-1.235-0.108-1.62h4.608
		c0.096,0.912,0.168,2.016,0.216,3.312c0.047,1.296,0.072,2.52,0.072,3.672h0.144c0.672-2.399,1.775-4.356,3.312-5.868
		c1.536-1.512,3.456-2.268,5.76-2.268c1.919,0,3.467,0.408,4.644,1.224c1.176,0.817,2.076,1.884,2.7,3.204
		c0.623,1.321,1.044,2.808,1.26,4.464c0.216,1.656,0.324,3.301,0.324,4.932v23.04H125.999z"/>
	<path d="M155.589,107.079h-6.552l-12.6-50.976h5.472l10.512,45.288h0.144l10.512-45.288h5.328L155.589,107.079z"/>
	<path d="M179.925,60.423c0,1.008-0.312,1.836-0.936,2.484c-0.625,0.648-1.368,0.972-2.232,0.972c-0.912,0-1.668-0.324-2.268-0.972
		c-0.601-0.648-0.9-1.476-0.9-2.484c0-0.96,0.299-1.775,0.9-2.448c0.6-0.671,1.356-1.008,2.268-1.008
		c0.911,0,1.667,0.336,2.269,1.008C179.625,58.648,179.925,59.463,179.925,60.423z M174.381,107.079V71.367h4.752v35.712H174.381z"
		/>
	<path d="M186.548,107.079v-4.176l14.904-27.432H187.7v-4.104h18.72v4.032l-14.832,27.576h14.904v4.104H186.548z"/>
</g>
<path fill="#B22222" stroke="#000000" stroke-width="3" stroke-miterlimit="10" d="M19.565,67.661
	c6.948-27.287,30.742-47.909,59.613-50.103L77.956,1.609C42.178,4.328,12.69,29.877,4.067,63.687L19.565,67.661z"/>
<path fill="#DAA620" stroke="#000000" stroke-width="3" stroke-miterlimit="10" d="M139.134,46.103h18.653
	C144.908,21.318,119.856,3.832,90.602,1.609L89.38,17.558C109.969,19.122,127.975,30.062,139.134,46.103z"/>
<path fill="#248C37" stroke="#000000" stroke-width="3" stroke-miterlimit="10" d="M17.5,84.123c0-2.161,0.105-4.297,0.307-6.406
	L1.883,76.151C1.631,78.774,1.5,81.434,1.5,84.123c0,45.645,37.135,82.779,82.779,82.779c33.935,0,63.152-20.533,75.916-49.822
	h-17.873c-11.502,20.178-33.203,33.822-58.043,33.822C47.457,150.901,17.5,120.944,17.5,84.123z"/>
<g>
	<path fill="#4682B4" d="M239.085,106.902c-1.993,0.742-4.333,1.113-7.021,1.113c-2.833,0-5.376-0.625-7.632-1.872
		c-2.257-1.248-4.152-3.024-5.688-5.328c-1.536-2.304-2.712-5.087-3.527-8.352c-0.817-3.263-1.225-6.912-1.225-10.944
		c0-3.791,0.396-7.319,1.188-10.584c0.792-3.264,1.932-6.084,3.42-8.46c1.487-2.376,3.312-4.236,5.472-5.58
		c2.16-1.343,4.608-2.016,7.345-2.016c2.495,0,4.775,0.504,6.84,1.512c2.063,1.008,3.791,2.592,5.184,4.752l-3.24,3.312
		c-1.104-1.68-2.388-2.939-3.852-3.78c-1.465-0.839-3.036-1.26-4.716-1.26c-2.113,0-3.937,0.588-5.473,1.764
		c-1.536,1.177-2.82,2.772-3.852,4.788c-1.033,2.016-1.8,4.356-2.304,7.02c-0.504,2.664-0.756,5.508-0.756,8.532
		c0,3.168,0.263,6.096,0.792,8.784c0.527,2.688,1.332,5.004,2.411,6.948c1.08,1.944,2.424,3.468,4.032,4.572
		c1.607,1.104,3.468,1.656,5.58,1.656c1.536,0,2.916-0.191,4.14-0.576c1.225-0.384,2.244-0.936,3.061-1.656v-17.28h-7.272v-4.32
		h12.168v24.274C242.768,105.167,241.076,106.16,239.085,106.902z"/>
	<path fill="#4682B4" d="M257.048,90.231c0,1.969,0.169,3.78,0.507,5.436c0.337,1.656,0.831,3.096,1.482,4.32
		c0.651,1.224,1.472,2.185,2.46,2.88c0.989,0.696,2.159,1.044,3.511,1.044c1.735,0,3.134-0.528,4.196-1.584
		c1.061-1.055,1.881-2.328,2.46-3.816l3.6,2.088c-0.863,2.16-2.148,3.972-3.852,5.436c-1.704,1.463-3.877,2.196-6.516,2.196
		c-3.985,0-7.081-1.68-9.288-5.04c-2.209-3.359-3.312-7.992-3.312-13.896c0-2.783,0.287-5.352,0.86-7.704
		c0.574-2.352,1.4-4.368,2.478-6.048c1.077-1.68,2.394-2.988,3.948-3.924s3.29-1.404,5.205-1.404c2.104,0,3.887,0.457,5.347,1.368
		c1.461,0.913,2.646,2.16,3.554,3.744c0.909,1.584,1.566,3.432,1.974,5.544c0.407,2.113,0.611,4.368,0.611,6.768v2.592H257.048z
		 M271.521,86.271c0-3.6-0.556-6.491-1.665-8.676c-1.109-2.184-2.847-3.276-5.21-3.276c-1.399,0-2.568,0.42-3.509,1.26
		c-0.94,0.84-1.713,1.872-2.315,3.096c-0.604,1.224-1.037,2.532-1.303,3.924c-0.266,1.393-0.398,2.617-0.398,3.672H271.521z"/>
	<path fill="#4682B4" d="M303.199,107.079v-23.04c0-1.104-0.061-2.22-0.18-3.348c-0.121-1.127-0.385-2.16-0.792-3.096
		c-0.409-0.936-0.984-1.703-1.729-2.304c-0.744-0.6-1.717-0.9-2.916-0.9c-1.2,0-2.268,0.324-3.204,0.972
		c-0.936,0.648-1.728,1.537-2.376,2.664c-0.647,1.128-1.151,2.424-1.512,3.888c-0.36,1.465-0.54,2.988-0.54,4.572v20.592h-4.752
		V80.367c0-0.768-0.013-1.595-0.036-2.484c-0.024-0.888-0.048-1.752-0.072-2.592c-0.024-0.839-0.048-1.607-0.071-2.304
		c-0.025-0.695-0.062-1.235-0.108-1.62h4.608c0.096,0.912,0.167,2.016,0.216,3.312c0.047,1.296,0.072,2.52,0.072,3.672h0.144
		c0.672-2.399,1.775-4.356,3.312-5.868c1.535-1.512,3.455-2.268,5.76-2.268c1.919,0,3.467,0.408,4.644,1.224
		c1.176,0.817,2.076,1.884,2.7,3.204c0.623,1.321,1.044,2.808,1.26,4.464c0.216,1.656,0.324,3.301,0.324,4.932v23.04H303.199z"/>
	<path fill="#4682B4" d="M321.342,90.231c0,1.969,0.169,3.78,0.507,5.436c0.337,1.656,0.831,3.096,1.482,4.32
		c0.651,1.224,1.472,2.185,2.46,2.88c0.989,0.696,2.159,1.044,3.511,1.044c1.735,0,3.134-0.528,4.196-1.584
		c1.061-1.055,1.881-2.328,2.46-3.816l3.6,2.088c-0.863,2.16-2.148,3.972-3.852,5.436c-1.704,1.463-3.877,2.196-6.516,2.196
		c-3.985,0-7.081-1.68-9.288-5.04c-2.209-3.359-3.312-7.992-3.312-13.896c0-2.783,0.287-5.352,0.86-7.704
		c0.574-2.352,1.4-4.368,2.478-6.048c1.077-1.68,2.394-2.988,3.948-3.924s3.29-1.404,5.205-1.404c2.104,0,3.887,0.457,5.347,1.368
		c1.461,0.913,2.646,2.16,3.554,3.744c0.909,1.584,1.566,3.432,1.974,5.544c0.407,2.113,0.611,4.368,0.611,6.768v2.592H321.342z
		 M335.814,86.271c0-3.6-0.556-6.491-1.665-8.676c-1.109-2.184-2.847-3.276-5.21-3.276c-1.399,0-2.568,0.42-3.509,1.26
		c-0.94,0.84-1.713,1.872-2.315,3.096c-0.604,1.224-1.037,2.532-1.303,3.924c-0.266,1.393-0.398,2.617-0.398,3.672H335.814z"/>
	<path fill="#4682B4" d="M357.341,72.375c1.392-1.392,2.976-2.088,4.752-2.088c0.384,0,0.672,0.025,0.864,0.072l-0.144,4.896
		c-0.192-0.047-0.373-0.083-0.54-0.108c-0.169-0.023-0.373-0.036-0.612-0.036c-1.2,0-2.268,0.408-3.204,1.224
		c-0.936,0.817-1.717,1.872-2.34,3.168c-0.624,1.296-1.093,2.772-1.404,4.428c-0.312,1.656-0.468,3.301-0.468,4.932v18.216h-4.752
		V80.367c0-0.768-0.013-1.595-0.036-2.484c-0.024-0.888-0.048-1.752-0.072-2.592c-0.024-0.839-0.048-1.607-0.071-2.304
		c-0.025-0.695-0.062-1.235-0.108-1.62h4.608c0.096,0.912,0.167,2.052,0.216,3.42c0.047,1.368,0.072,2.82,0.072,4.356h0.144
		C354.917,76.023,355.948,73.768,357.341,72.375z"/>
	<path fill="#4682B4" d="M383.476,107.079c-0.048-0.384-0.084-0.864-0.107-1.44c-0.024-0.576-0.049-1.188-0.072-1.836
		c-0.024-0.648-0.036-1.271-0.036-1.872c0-0.6,0-1.116,0-1.548h-0.144c-1.2,5.088-4.08,7.632-8.641,7.632
		c-1.008,0-2.016-0.192-3.023-0.576c-1.008-0.383-1.921-1.008-2.736-1.872c-0.816-0.864-1.488-1.955-2.016-3.276
		c-0.529-1.319-0.792-2.916-0.792-4.788c0-2.592,0.455-4.68,1.368-6.264c0.911-1.584,2.062-2.832,3.456-3.744
		c1.392-0.911,2.916-1.523,4.571-1.836c1.656-0.312,3.228-0.468,4.717-0.468h2.808v-1.872c0-3.12-0.576-5.4-1.729-6.84
		c-1.151-1.44-2.712-2.16-4.68-2.16c-1.345,0-2.592,0.36-3.744,1.08c-1.151,0.72-2.136,1.632-2.952,2.736l-2.52-2.952
		c1.104-1.584,2.544-2.808,4.32-3.672c1.774-0.864,3.551-1.296,5.328-1.296c3.743,0,6.407,1.224,7.991,3.672
		c1.584,2.448,2.376,6.024,2.376,10.728v14.832c0,0.48,0.012,1.08,0.036,1.8c0.023,0.72,0.048,1.453,0.072,2.196
		c0.023,0.745,0.06,1.44,0.108,2.088c0.047,0.648,0.095,1.164,0.144,1.548H383.476z M382.9,88.935h-2.88
		c-1.152,0-2.305,0.108-3.456,0.324c-1.152,0.216-2.173,0.624-3.061,1.224c-0.889,0.601-1.62,1.429-2.196,2.484
		c-0.575,1.056-0.863,2.424-0.863,4.104c0,2.496,0.551,4.296,1.655,5.4c1.104,1.104,2.305,1.656,3.601,1.656
		c1.343,0,2.483-0.407,3.42-1.224c0.936-0.816,1.68-1.848,2.232-3.096c0.551-1.248,0.946-2.616,1.188-4.104
		c0.239-1.487,0.36-2.927,0.36-4.32V88.935z"/>
	<path fill="#4682B4" d="M407.236,107.727c-0.769,0.191-1.561,0.288-2.376,0.288c-2.497,0-4.261-0.864-5.292-2.592
		c-1.033-1.728-1.549-4.032-1.549-6.912V75.255h-4.68v-3.888h4.608v-9.864h4.68v9.864h6.336v3.888h-6.336v22.392
		c0,2.16,0.312,3.733,0.936,4.716c0.624,0.984,1.56,1.476,2.809,1.476c0.432,0,0.888-0.06,1.368-0.18
		c0.479-0.119,0.888-0.252,1.224-0.396l0.216,3.816C408.651,107.319,408.003,107.535,407.236,107.727z"/>
	<path fill="#4682B4" d="M438.34,89.295c0,2.833-0.288,5.4-0.864,7.704c-0.575,2.304-1.393,4.296-2.447,5.976
		c-1.057,1.681-2.365,2.977-3.925,3.888c-1.56,0.911-3.301,1.368-5.22,1.368c-1.92,0-3.648-0.457-5.184-1.368
		c-1.537-0.912-2.845-2.208-3.924-3.888c-1.08-1.68-1.908-3.672-2.484-5.976c-0.576-2.304-0.864-4.871-0.864-7.704
		c0-2.832,0.275-5.423,0.828-7.776c0.552-2.351,1.355-4.367,2.412-6.048c1.056-1.68,2.363-2.976,3.924-3.888
		c1.56-0.911,3.323-1.368,5.292-1.368c1.919,0,3.66,0.457,5.22,1.368c1.56,0.913,2.868,2.208,3.925,3.888
		c1.055,1.681,1.872,3.697,2.447,6.048C438.052,83.872,438.34,86.463,438.34,89.295z M433.444,89.187
		c0-2.106-0.157-4.069-0.469-5.889c-0.312-1.82-0.78-3.389-1.403-4.705c-0.625-1.316-1.404-2.358-2.34-3.124
		c-0.937-0.766-2.053-1.149-3.349-1.149s-2.424,0.383-3.384,1.149c-0.961,0.766-1.74,1.808-2.34,3.124
		c-0.601,1.316-1.057,2.885-1.368,4.705c-0.312,1.82-0.468,3.783-0.468,5.889c0,2.107,0.155,4.047,0.468,5.818
		c0.312,1.772,0.768,3.328,1.368,4.669c0.6,1.341,1.379,2.382,2.34,3.124c0.96,0.743,2.088,1.113,3.384,1.113
		s2.424-0.37,3.384-1.113c0.96-0.742,1.739-1.783,2.341-3.124c0.6-1.341,1.055-2.897,1.367-4.669
		C433.287,93.234,433.444,91.294,433.444,89.187z"/>
	<path fill="#4682B4" d="M455.402,72.375c1.392-1.392,2.976-2.088,4.752-2.088c0.384,0,0.672,0.025,0.864,0.072l-0.144,4.896
		c-0.192-0.047-0.373-0.083-0.54-0.108c-0.169-0.023-0.373-0.036-0.612-0.036c-1.2,0-2.268,0.408-3.204,1.224
		c-0.936,0.817-1.717,1.872-2.34,3.168c-0.624,1.296-1.093,2.772-1.404,4.428c-0.312,1.656-0.468,3.301-0.468,4.932v18.216h-4.752
		V80.367c0-0.768-0.013-1.595-0.036-2.484c-0.024-0.888-0.048-1.752-0.072-2.592c-0.024-0.839-0.048-1.607-0.071-2.304
		c-0.025-0.695-0.062-1.235-0.108-1.62h4.608c0.096,0.912,0.167,2.052,0.216,3.42c0.047,1.368,0.072,2.82,0.072,4.356h0.144
		C452.979,76.023,454.01,73.768,455.402,72.375z"/>
</g>
</svg>
