<?xml version="1.0" encoding="utf-8"?>
<!-- Generator: Adobe Illustrator 15.0.2, SVG Export Plug-In . SVG Version: 6.00 Build 0)  -->
<!DOCTYPE svg PUBLIC "-//W3C//DTD SVG 1.1//EN" "http://www.w3.org/Graphics/SVG/1.1/DTD/svg11.dtd">
<svg version="1.1" id="Layer_1" xmlns="http://www.w3.org/2000/svg" xmlns:xlink="http://www.w3.org/1999/xlink" x="0px" y="0px"
	 width="796.813px" height="168.401px" viewBox="0 0 796.813 168.401" enable-background="new 0 0 796.813 168.401"
	 xml:space="preserve">
<g>
	<path d="M73.368,69.927c0,2.352-0.349,4.428-1.044,6.228c-0.696,1.8-1.62,3.301-2.772,4.5c-1.152,1.2-2.484,2.113-3.996,2.736
		c-1.512,0.625-3.084,0.936-4.716,0.936h-7.488v22.752h-4.968V56.103h12.024c1.487,0,3,0.216,4.536,0.648
		c1.536,0.432,2.927,1.188,4.176,2.268c1.248,1.08,2.268,2.509,3.06,4.284C72.972,65.08,73.368,67.288,73.368,69.927z M68.4,69.964
		c0-1.674-0.216-3.121-0.648-4.34c-0.432-1.22-1.033-2.212-1.8-2.977c-0.768-0.765-1.645-1.328-2.628-1.687
		c-0.984-0.358-2.052-0.538-3.204-0.538h-6.768v19.584h6.84c2.255,0,4.187-0.825,5.796-2.475C67.595,75.883,68.4,73.359,68.4,69.964
		z"/>
	<path d="M93.6,107.079c-0.048-0.384-0.084-0.864-0.108-1.44c-0.025-0.576-0.048-1.188-0.072-1.836
		c-0.024-0.648-0.036-1.271-0.036-1.872c0-0.6,0-1.116,0-1.548H93.24c-1.201,5.088-4.081,7.632-8.64,7.632
		c-1.008,0-2.016-0.192-3.024-0.576c-1.008-0.383-1.92-1.008-2.736-1.872c-0.816-0.864-1.488-1.955-2.016-3.276
		c-0.529-1.319-0.792-2.916-0.792-4.788c0-2.592,0.456-4.68,1.368-6.264c0.912-1.584,2.063-2.832,3.456-3.744
		c1.392-0.911,2.916-1.523,4.572-1.836c1.656-0.312,3.228-0.468,4.716-0.468h2.808v-1.872c0-3.12-0.576-5.4-1.728-6.84
		s-2.712-2.16-4.68-2.16c-1.344,0-2.592,0.36-3.744,1.08c-1.152,0.72-2.137,1.632-2.952,2.736l-2.52-2.952
		c1.104-1.584,2.543-2.808,4.32-3.672c1.775-0.864,3.552-1.296,5.328-1.296c3.744,0,6.408,1.224,7.992,3.672
		c1.584,2.448,2.376,6.024,2.376,10.728v14.832c0,0.48,0.011,1.08,0.036,1.8c0.024,0.72,0.047,1.453,0.072,2.196
		c0.023,0.745,0.06,1.44,0.108,2.088c0.047,0.648,0.096,1.164,0.144,1.548H93.6z M93.023,88.935h-2.88
		c-1.152,0-2.304,0.108-3.456,0.324c-1.152,0.216-2.172,0.624-3.06,1.224c-0.889,0.601-1.62,1.429-2.196,2.484
		c-0.576,1.056-0.864,2.424-0.864,4.104c0,2.496,0.551,4.296,1.656,5.4c1.104,1.104,2.304,1.656,3.6,1.656
		c1.343,0,2.484-0.407,3.42-1.224c0.936-0.816,1.68-1.848,2.232-3.096c0.551-1.248,0.947-2.616,1.188-4.104
		c0.24-1.487,0.36-2.927,0.36-4.32V88.935z"/>
	<path d="M125.999,107.079v-23.04c0-1.104-0.061-2.22-0.18-3.348c-0.12-1.127-0.385-2.16-0.792-3.096
		c-0.408-0.936-0.984-1.703-1.728-2.304c-0.745-0.6-1.717-0.9-2.916-0.9c-1.2,0-2.268,0.324-3.204,0.972s-1.728,1.537-2.376,2.664
		c-0.648,1.128-1.152,2.424-1.512,3.888c-0.36,1.465-0.54,2.988-0.54,4.572v20.592h-4.752V80.367c0-0.768-0.012-1.595-0.036-2.484
		c-0.024-0.888-0.048-1.752-0.072-2.592c-0.025-0.839-0.048-1.607-0.072-2.304c-0.024-0.695-0.061-1.235-0.108-1.62h4.608
		c0.096,0.912,0.168,2.016,0.216,3.312c0.047,1.296,0.072,2.52,0.072,3.672h0.144c0.672-2.399,1.775-4.356,3.312-5.868
		c1.536-1.512,3.456-2.268,5.76-2.268c1.919,0,3.467,0.408,4.644,1.224c1.176,0.817,2.076,1.884,2.7,3.204
		c0.623,1.321,1.044,2.808,1.26,4.464c0.216,1.656,0.324,3.301,0.324,4.932v23.04H125.999z"/>
	<path d="M155.59,107.079h-6.552l-12.6-50.976h5.472l10.512,45.288h0.144l10.512-45.288h5.328L155.59,107.079z"/>
	<path d="M179.926,60.423c0,1.008-0.312,1.836-0.936,2.484c-0.625,0.648-1.369,0.972-2.232,0.972c-0.913,0-1.669-0.324-2.269-0.972
		c-0.601-0.648-0.9-1.476-0.9-2.484c0-0.96,0.299-1.775,0.9-2.448c0.6-0.671,1.356-1.008,2.269-1.008
		c0.91,0,1.666,0.336,2.268,1.008C179.625,58.648,179.926,59.463,179.926,60.423z M174.381,107.079V71.367h4.751v35.712H174.381z"/>
	<path d="M186.549,107.079v-4.176l14.904-27.432h-13.752v-4.104h18.72v4.032l-14.832,27.576h14.904v4.104H186.549z"/>
</g>
<path fill="#B22222" stroke="#000000" stroke-width="3" stroke-miterlimit="10" d="M19.565,67.661
	c6.948-27.287,30.742-47.909,59.613-50.103L77.956,1.609C42.178,4.328,12.69,29.877,4.067,63.687L19.565,67.661z"/>
<path fill="#DAA620" stroke="#000000" stroke-width="3" stroke-miterlimit="10" d="M139.134,46.103h18.653
	C144.908,21.318,119.856,3.832,90.602,1.609L89.38,17.558C109.969,19.122,127.975,30.062,139.134,46.103z"/>
<path fill="#248C37" stroke="#000000" stroke-width="3" stroke-miterlimit="10" d="M17.5,84.123c0-2.161,0.105-4.297,0.307-6.406
	L1.883,76.151C1.631,78.774,1.5,81.434,1.5,84.123c0,45.645,37.135,82.779,82.779,82.779c33.935,0,63.152-20.533,75.916-49.822
	h-17.873c-11.502,20.178-33.203,33.822-58.043,33.822C47.457,150.901,17.5,120.944,17.5,84.123z"/>
<g>
	<path fill="#4682B4" d="M239.085,106.902c-1.993,0.742-4.333,1.113-7.021,1.113c-2.833,0-5.376-0.625-7.632-1.872
		c-2.257-1.248-4.152-3.024-5.688-5.328c-1.536-2.304-2.712-5.087-3.527-8.352c-0.817-3.263-1.225-6.912-1.225-10.944
		c0-3.791,0.396-7.319,1.188-10.584c0.792-3.264,1.932-6.084,3.42-8.46c1.487-2.376,3.312-4.236,5.472-5.58
		c2.16-1.343,4.608-2.016,7.345-2.016c2.495,0,4.775,0.504,6.84,1.512c2.063,1.008,3.791,2.592,5.184,4.752l-3.24,3.312
		c-1.104-1.68-2.388-2.939-3.852-3.78c-1.465-0.839-3.036-1.26-4.716-1.26c-2.113,0-3.937,0.588-5.473,1.764
		c-1.536,1.177-2.82,2.772-3.852,4.788c-1.033,2.016-1.8,4.356-2.304,7.02c-0.504,2.664-0.756,5.508-0.756,8.532
		c0,3.168,0.263,6.096,0.792,8.784c0.527,2.688,1.332,5.004,2.411,6.948c1.08,1.944,2.424,3.468,4.032,4.572
		c1.607,1.104,3.468,1.656,5.58,1.656c1.536,0,2.916-0.191,4.14-0.576c1.225-0.384,2.244-0.936,3.061-1.656v-17.28h-7.272v-4.32
		h12.168v24.274C242.768,105.167,241.076,106.16,239.085,106.902z"/>
	<path fill="#4682B4" d="M257.048,90.231c0,1.969,0.169,3.78,0.507,5.436c0.337,1.656,0.831,3.096,1.482,4.32
		c0.651,1.224,1.472,2.185,2.46,2.88c0.989,0.696,2.159,1.044,3.511,1.044c1.735,0,3.134-0.528,4.196-1.584
		c1.061-1.055,1.881-2.328,2.46-3.816l3.6,2.088c-0.863,2.16-2.148,3.972-3.852,5.436c-1.704,1.463-3.877,2.196-6.516,2.196
		c-3.985,0-7.081-1.68-9.288-5.04c-2.209-3.359-3.312-7.992-3.312-13.896c0-2.783,0.287-5.352,0.86-7.704
		c0.574-2.352,1.4-4.368,2.478-6.048c1.077-1.68,2.394-2.988,3.948-3.924s3.29-1.404,5.205-1.404c2.104,0,3.887,0.457,5.347,1.368
		c1.461,0.913,2.646,2.16,3.554,3.744c0.909,1.584,1.566,3.432,1.974,5.544c0.407,2.113,0.611,4.368,0.611,6.768v2.592H257.048z
		 M271.521,86.271c0-3.6-0.556-6.491-1.665-8.676c-1.109-2.184-2.847-3.276-5.21-3.276c-1.399,0-2.568,0.42-3.509,1.26
		c-0.94,0.84-1.713,1.872-2.315,3.096c-0.604,1.224-1.037,2.532-1.303,3.924c-0.266,1.393-0.398,2.617-0.398,3.672H271.521z"/>
	<path fill="#4682B4" d="M303.199,107.079v-23.04c0-1.104-0.061-2.22-0.18-3.348c-0.121-1.127-0.385-2.16-0.792-3.096
		c-0.409-0.936-0.984-1.703-1.729-2.304c-0.744-0.6-1.717-0.9-2.916-0.9c-1.2,0-2.268,0.324-3.204,0.972
		c-0.936,0.648-1.728,1.537-2.376,2.664c-0.647,1.128-1.151,2.424-1.512,3.888c-0.36,1.465-0.54,2.988-0.54,4.572v20.592h-4.752
		V80.367c0-0.768-0.013-1.595-0.036-2.484c-0.024-0.888-0.048-1.752-0.072-2.592c-0.024-0.839-0.048-1.607-0.071-2.304
		c-0.025-0.695-0.062-1.235-0.108-1.62h4.608c0.096,0.912,0.167,2.016,0.216,3.312c0.047,1.296,0.072,2.52,0.072,3.672h0.144
		c0.672-2.399,1.775-4.356,3.312-5.868c1.535-1.512,3.455-2.268,5.76-2.268c1.919,0,3.467,0.408,4.644,1.224
		c1.176,0.817,2.076,1.884,2.7,3.204c0.623,1.321,1.044,2.808,1.26,4.464c0.216,1.656,0.324,3.301,0.324,4.932v23.04H303.199z"/>
	<path fill="#4682B4" d="M321.342,90.231c0,1.969,0.169,3.78,0.507,5.436c0.337,1.656,0.831,3.096,1.482,4.32
		c0.651,1.224,1.472,2.185,2.46,2.88c0.989,0.696,2.159,1.044,3.511,1.044c1.735,0,3.134-0.528,4.196-1.584
		c1.061-1.055,1.881-2.328,2.46-3.816l3.6,2.088c-0.863,2.16-2.148,3.972-3.852,5.436c-1.704,1.463-3.877,2.196-6.516,2.196
		c-3.985,0-7.081-1.68-9.288-5.04c-2.209-3.359-3.312-7.992-3.312-13.896c0-2.783,0.287-5.352,0.86-7.704
		c0.574-2.352,1.4-4.368,2.478-6.048c1.077-1.68,2.394-2.988,3.948-3.924s3.29-1.404,5.205-1.404c2.104,0,3.887,0.457,5.347,1.368
		c1.461,0.913,2.646,2.16,3.554,3.744c0.909,1.584,1.566,3.432,1.974,5.544c0.407,2.113,0.611,4.368,0.611,6.768v2.592H321.342z
		 M335.814,86.271c0-3.6-0.556-6.491-1.665-8.676c-1.109-2.184-2.847-3.276-5.21-3.276c-1.399,0-2.568,0.42-3.509,1.26
		c-0.94,0.84-1.713,1.872-2.315,3.096c-0.604,1.224-1.037,2.532-1.303,3.924c-0.266,1.393-0.398,2.617-0.398,3.672H335.814z"/>
	<path fill="#4682B4" d="M357.341,72.375c1.392-1.392,2.976-2.088,4.752-2.088c0.384,0,0.672,0.025,0.864,0.072l-0.144,4.896
		c-0.192-0.047-0.373-0.083-0.54-0.108c-0.169-0.023-0.373-0.036-0.612-0.036c-1.2,0-2.268,0.408-3.204,1.224
		c-0.936,0.817-1.717,1.872-2.34,3.168c-0.624,1.296-1.093,2.772-1.404,4.428c-0.312,1.656-0.468,3.301-0.468,4.932v18.216h-4.752
		V80.367c0-0.768-0.013-1.595-0.036-2.484c-0.024-0.888-0.048-1.752-0.072-2.592c-0.024-0.839-0.048-1.607-0.071-2.304
		c-0.025-0.695-0.062-1.235-0.108-1.62h4.608c0.096,0.912,0.167,2.052,0.216,3.42c0.047,1.368,0.072,2.82,0.072,4.356h0.144
		C354.917,76.023,355.948,73.768,357.341,72.375z"/>
	<path fill="#4682B4" d="M383.476,107.079c-0.048-0.384-0.084-0.864-0.107-1.44c-0.024-0.576-0.049-1.188-0.072-1.836
		c-0.024-0.648-0.036-1.271-0.036-1.872c0-0.6,0-1.116,0-1.548h-0.144c-1.2,5.088-4.08,7.632-8.641,7.632
		c-1.008,0-2.016-0.192-3.023-0.576c-1.008-0.383-1.921-1.008-2.736-1.872c-0.816-0.864-1.488-1.955-2.016-3.276
		c-0.529-1.319-0.792-2.916-0.792-4.788c0-2.592,0.455-4.68,1.368-6.264c0.911-1.584,2.062-2.832,3.456-3.744
		c1.392-0.911,2.916-1.523,4.571-1.836c1.656-0.312,3.228-0.468,4.717-0.468h2.808v-1.872c0-3.12-0.576-5.4-1.729-6.84
		c-1.151-1.44-2.712-2.16-4.68-2.16c-1.345,0-2.592,0.36-3.744,1.08c-1.151,0.72-2.136,1.632-2.952,2.736l-2.52-2.952
		c1.104-1.584,2.544-2.808,4.32-3.672c1.774-0.864,3.551-1.296,5.328-1.296c3.743,0,6.407,1.224,7.991,3.672
		c1.584,2.448,2.376,6.024,2.376,10.728v14.832c0,0.48,0.012,1.08,0.036,1.8c0.023,0.72,0.048,1.453,0.072,2.196
		c0.023,0.745,0.06,1.44,0.108,2.088c0.047,0.648,0.095,1.164,0.144,1.548H383.476z M382.9,88.935h-2.88
		c-1.152,0-2.305,0.108-3.456,0.324c-1.152,0.216-2.173,0.624-3.061,1.224c-0.889,0.601-1.62,1.429-2.196,2.484
		c-0.575,1.056-0.863,2.424-0.863,4.104c0,2.496,0.551,4.296,1.655,5.4c1.104,1.104,2.305,1.656,3.601,1.656
		c1.343,0,2.483-0.407,3.42-1.224c0.936-0.816,1.68-1.848,2.232-3.096c0.551-1.248,0.946-2.616,1.188-4.104
		c0.239-1.487,0.36-2.927,0.36-4.32V88.935z"/>
	<path fill="#4682B4" d="M407.236,107.727c-0.769,0.191-1.561,0.288-2.376,0.288c-2.497,0-4.261-0.864-5.292-2.592
		c-1.033-1.728-1.549-4.032-1.549-6.912V75.255h-4.68v-3.888h4.608v-9.864h4.68v9.864h6.336v3.888h-6.336v22.392
		c0,2.16,0.312,3.733,0.936,4.716c0.624,0.984,1.56,1.476,2.809,1.476c0.432,0,0.888-0.06,1.368-0.18
		c0.479-0.119,0.888-0.252,1.224-0.396l0.216,3.816C408.651,107.319,408.003,107.535,407.236,107.727z"/>
	<path fill="#4682B4" d="M438.34,89.295c0,2.833-0.288,5.4-0.864,7.704c-0.575,2.304-1.393,4.296-2.447,5.976
		c-1.057,1.681-2.365,2.977-3.925,3.888c-1.56,0.911-3.301,1.368-5.22,1.368c-1.92,0-3.648-0.457-5.184-1.368
		c-1.537-0.912-2.845-2.208-3.924-3.888c-1.08-1.68-1.908-3.672-2.484-5.976c-0.576-2.304-0.864-4.871-0.864-7.704
		c0-2.832,0.275-5.423,0.828-7.776c0.552-2.351,1.355-4.367,2.412-6.048c1.056-1.68,2.363-2.976,3.924-3.888
		c1.56-0.911,3.323-1.368,5.292-1.368c1.919,0,3.66,0.457,5.22,1.368c1.56,0.913,2.868,2.208,3.925,3.888
		c1.055,1.681,1.872,3.697,2.447,6.048C438.052,83.872,438.34,86.463,438.34,89.295z M433.444,89.187
		c0-2.106-0.157-4.069-0.469-5.889c-0.312-1.82-0.78-3.389-1.403-4.705c-0.625-1.316-1.404-2.358-2.34-3.124
		c-0.937-0.766-2.053-1.149-3.349-1.149s-2.424,0.383-3.384,1.149c-0.961,0.766-1.74,1.808-2.34,3.124
		c-0.601,1.316-1.057,2.885-1.368,4.705c-0.312,1.82-0.468,3.783-0.468,5.889c0,2.107,0.155,4.047,0.468,5.818
		c0.312,1.772,0.768,3.328,1.368,4.669c0.6,1.341,1.379,2.382,2.34,3.124c0.96,0.743,2.088,1.113,3.384,1.113
		s2.424-0.37,3.384-1.113c0.96-0.742,1.739-1.783,2.341-3.124c0.6-1.341,1.055-2.897,1.367-4.669
		C433.287,93.234,433.444,91.294,433.444,89.187z"/>
	<path fill="#4682B4" d="M455.402,72.375c1.392-1.392,2.976-2.088,4.752-2.088c0.384,0,0.672,0.025,0.864,0.072l-0.144,4.896
		c-0.192-0.047-0.373-0.083-0.54-0.108c-0.169-0.023-0.373-0.036-0.612-0.036c-1.2,0-2.268,0.408-3.204,1.224
		c-0.936,0.817-1.717,1.872-2.34,3.168c-0.624,1.296-1.093,2.772-1.404,4.428c-0.312,1.656-0.468,3.301-0.468,4.932v18.216h-4.752
		V80.367c0-0.768-0.013-1.595-0.036-2.484c-0.024-0.888-0.048-1.752-0.072-2.592c-0.024-0.839-0.048-1.607-0.071-2.304
		c-0.025-0.695-0.062-1.235-0.108-1.62h4.608c0.096,0.912,0.167,2.052,0.216,3.42c0.047,1.368,0.072,2.82,0.072,4.356h0.144
		C452.979,76.023,454.01,73.768,455.402,72.375z"/>
</g>
<g>
	<path d="M515.837,94.839c0,1.44-0.175,2.922-0.522,4.446c-0.348,1.524-0.84,2.91-1.476,4.158c-0.637,1.249-1.417,2.268-2.34,3.06
		c-0.925,0.792-1.963,1.188-3.114,1.188c-1.248,0-2.173-0.366-2.772-1.098c-0.6-0.732-0.948-1.65-1.044-2.754h-0.072l-0.539,3.24
		h-2.269l4.752-27.216h2.304l-2.195,12.492h0.071c0.48-1.08,1.122-1.974,1.927-2.682c0.804-0.708,1.746-1.062,2.826-1.062
		c1.487,0,2.604,0.57,3.348,1.71C515.464,91.461,515.837,92.967,515.837,94.839z M513.425,95.106c0-1.313-0.223-2.376-0.666-3.188
		c-0.444-0.812-1.146-1.218-2.106-1.218c-0.84,0-1.59,0.34-2.25,1.021s-1.224,1.534-1.691,2.562c-0.469,1.027-0.828,2.15-1.08,3.368
		s-0.378,2.353-0.378,3.403c0,1.362,0.216,2.46,0.647,3.296c0.433,0.836,1.14,1.254,2.124,1.254c0.864,0,1.632-0.352,2.304-1.057
		s1.236-1.583,1.692-2.633s0.804-2.185,1.044-3.404C513.305,97.292,513.425,96.157,513.425,95.106z"/>
	<path d="M522.136,111.003c-0.648,1.512-1.35,2.676-2.106,3.492c-0.756,0.815-1.77,1.224-3.042,1.224
		c-0.623,0-1.14-0.084-1.548-0.252l0.468-2.124c0.288,0.144,0.661,0.216,1.116,0.216c0.721,0,1.29-0.247,1.71-0.738
		c0.42-0.492,0.811-1.158,1.17-1.998l1.332-3.24l-1.943-18.36h2.412l1.188,15.156h0.072l6.156-15.156h2.411L522.136,111.003z"/>
	<path d="M551.044,83.679h-4.932l-4.068,23.4h-2.448l4.104-23.4h-4.932l0.359-2.088h12.276L551.044,83.679z"/>
	<path d="M563.068,92.967c0,0.336-0.024,0.738-0.072,1.206c-0.049,0.468-0.108,0.93-0.18,1.386l-2.017,11.52h-2.34l1.98-11.52
		c0.048-0.336,0.096-0.684,0.144-1.044s0.072-0.708,0.072-1.044c0-0.744-0.156-1.392-0.468-1.944
		c-0.312-0.552-0.9-0.828-1.765-0.828c-0.6,0-1.158,0.168-1.674,0.504c-0.517,0.336-0.984,0.78-1.404,1.332
		c-0.42,0.552-0.78,1.194-1.08,1.926c-0.3,0.732-0.521,1.506-0.666,2.322l-1.8,10.296h-2.34l4.716-27.216h2.34l-2.231,12.672h0.072
		c0.216-0.504,0.491-0.996,0.827-1.476c0.336-0.48,0.714-0.9,1.135-1.26c0.419-0.36,0.888-0.648,1.403-0.864
		c0.517-0.216,1.062-0.324,1.639-0.324c0.695,0,1.277,0.126,1.746,0.378c0.468,0.252,0.846,0.582,1.134,0.99
		c0.288,0.409,0.498,0.876,0.63,1.404S563.068,92.439,563.068,92.967z"/>
	<path d="M579.376,95.199c0,1.512-0.186,3.012-0.558,4.5c-0.372,1.488-0.906,2.826-1.602,4.014c-0.696,1.188-1.536,2.148-2.521,2.88
		c-0.984,0.731-2.076,1.098-3.275,1.098c-1.584,0-2.821-0.594-3.708-1.782c-0.889-1.188-1.332-2.778-1.332-4.77
		c0-1.512,0.186-3.018,0.558-4.518c0.372-1.5,0.9-2.844,1.584-4.032c0.684-1.188,1.512-2.147,2.484-2.88
		c0.972-0.732,2.069-1.098,3.294-1.098c1.632,0,2.886,0.6,3.762,1.8C578.938,91.611,579.376,93.208,579.376,95.199z M576.965,95.296
		c0-1.365-0.228-2.472-0.682-3.322c-0.454-0.85-1.183-1.275-2.187-1.275c-0.836,0-1.583,0.348-2.24,1.042
		c-0.656,0.694-1.212,1.562-1.666,2.604c-0.455,1.042-0.801,2.173-1.04,3.394c-0.238,1.221-0.358,2.358-0.358,3.412
		c0,1.341,0.222,2.418,0.664,3.232c0.441,0.814,1.164,1.221,2.168,1.221c0.86,0,1.619-0.334,2.276-1.005
		c0.656-0.671,1.212-1.521,1.666-2.55c0.454-1.03,0.801-2.149,1.04-3.358C576.845,97.48,576.965,96.35,576.965,95.296z"/>
	<path d="M604.324,92.967c0,0.336-0.025,0.738-0.073,1.206c-0.049,0.468-0.11,0.93-0.184,1.386l-2.01,11.52h-2.378l2.016-11.52
		c0.048-0.336,0.096-0.684,0.145-1.044c0.048-0.36,0.072-0.708,0.072-1.044c0-0.744-0.162-1.392-0.486-1.944
		s-0.918-0.828-1.782-0.828c-0.528,0-1.044,0.144-1.548,0.432c-0.504,0.288-0.96,0.679-1.368,1.17
		c-0.408,0.492-0.756,1.056-1.044,1.692c-0.288,0.636-0.492,1.291-0.612,1.962l-1.907,11.124h-2.376l2.016-11.52
		c0.048-0.336,0.096-0.689,0.144-1.062c0.048-0.372,0.072-0.738,0.072-1.098c0-0.696-0.156-1.319-0.468-1.872
		c-0.312-0.552-0.9-0.828-1.764-0.828c-0.601,0-1.158,0.168-1.675,0.504c-0.516,0.336-0.984,0.78-1.403,1.332
		c-0.42,0.552-0.774,1.194-1.062,1.926c-0.288,0.732-0.504,1.506-0.647,2.322l-1.8,10.296h-2.341l2.341-13.32
		c0.023-0.216,0.071-0.54,0.144-0.972s0.138-0.882,0.198-1.35c0.06-0.468,0.119-0.906,0.18-1.314c0.06-0.408,0.102-0.708,0.126-0.9
		h2.304c-0.048,0.384-0.12,0.906-0.216,1.566c-0.096,0.661-0.192,1.266-0.288,1.818h0.072c0.216-0.527,0.491-1.031,0.828-1.512
		c0.336-0.48,0.72-0.906,1.152-1.278c0.432-0.372,0.899-0.666,1.403-0.882s1.044-0.324,1.62-0.324c1.128,0,1.95,0.288,2.466,0.864
		s0.834,1.272,0.954,2.088c0.048,0.24,0.072,0.474,0.072,0.702c0,0.229,0,0.474,0,0.738h0.072c0.217-0.576,0.493-1.127,0.831-1.656
		c0.338-0.528,0.729-0.996,1.175-1.404c0.445-0.408,0.945-0.731,1.5-0.972c0.554-0.24,1.156-0.36,1.808-0.36
		c0.698,0,1.282,0.126,1.752,0.378s0.85,0.582,1.139,0.99c0.289,0.409,0.5,0.876,0.633,1.404S604.324,92.439,604.324,92.967z"/>
	<path d="M618.976,93.291c0,0.409-0.024,0.816-0.072,1.224c-0.049,0.408-0.12,0.852-0.216,1.332l-1.261,7.416
		c-0.048,0.264-0.096,0.57-0.144,0.918c-0.049,0.348-0.103,0.708-0.162,1.08c-0.061,0.372-0.108,0.72-0.144,1.044
		c-0.036,0.324-0.055,0.582-0.055,0.774h-1.979c0.023-0.408,0.084-0.954,0.18-1.638c0.096-0.684,0.192-1.253,0.288-1.71h-0.072
		c-0.432,1.152-1.044,2.076-1.836,2.772s-1.788,1.044-2.987,1.044c-1.08,0-1.95-0.354-2.61-1.062c-0.66-0.708-0.99-1.733-0.99-3.078
		c0-1.392,0.252-2.55,0.756-3.474c0.504-0.924,1.152-1.662,1.944-2.214c0.792-0.552,1.68-0.948,2.664-1.188
		c0.983-0.24,1.944-0.36,2.88-0.36h1.332c0.12-0.72,0.203-1.26,0.252-1.62c0.048-0.36,0.072-0.648,0.072-0.864
		c0-1.056-0.229-1.83-0.685-2.322c-0.456-0.492-1.104-0.738-1.943-0.738c-0.696,0-1.362,0.18-1.998,0.54
		c-0.637,0.36-1.194,0.816-1.674,1.368l-1.08-1.44c0.623-0.768,1.403-1.374,2.34-1.818c0.936-0.444,1.859-0.666,2.771-0.666
		c1.513,0,2.628,0.414,3.349,1.242C618.615,90.681,618.976,91.828,618.976,93.291z M614.907,97.971c-0.72,0-1.422,0.078-2.106,0.234
		c-0.684,0.156-1.302,0.432-1.854,0.828c-0.553,0.396-0.996,0.924-1.332,1.584c-0.337,0.66-0.504,1.482-0.504,2.466
		c0,0.84,0.203,1.476,0.612,1.908c0.407,0.432,0.923,0.648,1.548,0.648c0.695,0,1.308-0.204,1.836-0.612
		c0.527-0.408,0.983-0.924,1.368-1.548c0.383-0.624,0.695-1.308,0.936-2.052c0.239-0.744,0.432-1.464,0.576-2.16l0.252-1.296
		H614.907z"/>
	<path d="M631.323,91.923c-0.312-0.48-0.702-0.84-1.17-1.08c-0.468-0.24-1.05-0.36-1.746-0.36c-0.888,0-1.644,0.318-2.268,0.954
		c-0.624,0.636-0.937,1.471-0.937,2.502c0,0.792,0.192,1.404,0.576,1.836c0.384,0.432,0.948,0.853,1.692,1.26
		c0.455,0.264,0.882,0.546,1.278,0.846c0.396,0.301,0.749,0.636,1.062,1.008c0.312,0.373,0.558,0.792,0.738,1.26
		c0.18,0.468,0.27,1.002,0.27,1.602c0,0.984-0.162,1.842-0.485,2.574c-0.324,0.732-0.757,1.35-1.297,1.854
		c-0.539,0.504-1.17,0.882-1.89,1.134s-1.476,0.378-2.268,0.378c-1.032,0-1.962-0.222-2.79-0.666s-1.458-1.013-1.891-1.71
		l1.584-1.476c0.336,0.504,0.762,0.942,1.278,1.314c0.516,0.372,1.193,0.558,2.034,0.558c0.936,0,1.739-0.318,2.412-0.954
		c0.671-0.636,1.008-1.518,1.008-2.646c0-0.456-0.078-0.858-0.234-1.206c-0.156-0.348-0.359-0.666-0.611-0.954
		s-0.54-0.54-0.864-0.756c-0.324-0.216-0.654-0.42-0.99-0.612c-0.792-0.408-1.471-0.959-2.034-1.656
		c-0.563-0.696-0.846-1.608-0.846-2.736c0-0.84,0.149-1.602,0.45-2.286c0.3-0.684,0.707-1.272,1.224-1.764
		c0.516-0.492,1.122-0.87,1.818-1.134c0.695-0.264,1.439-0.396,2.231-0.396c0.984,0,1.806,0.168,2.467,0.504
		c0.659,0.336,1.182,0.744,1.565,1.224L631.323,91.923z"/>
	<path d="M650.512,107.079h-9.721l4.429-25.488h2.447l-4.031,23.22h7.271L650.512,107.079z"/>
	<path d="M655.694,107.079h-2.304l3.096-17.856h2.305L655.694,107.079z M660.087,83.319c0,0.552-0.168,1.014-0.504,1.386
		c-0.337,0.373-0.756,0.558-1.261,0.558c-0.432,0-0.768-0.138-1.008-0.414c-0.24-0.276-0.359-0.618-0.359-1.026
		c0-0.48,0.162-0.924,0.485-1.332c0.324-0.408,0.738-0.612,1.242-0.612c0.456,0,0.804,0.132,1.044,0.396
		C659.967,82.54,660.087,82.887,660.087,83.319z"/>
	<path d="M674.703,92.967c0,0.336-0.03,0.738-0.09,1.206c-0.061,0.468-0.126,0.93-0.198,1.386l-1.979,11.52h-2.341l1.98-11.52
		c0.048-0.336,0.096-0.684,0.144-1.044s0.072-0.708,0.072-1.044c0-0.744-0.156-1.392-0.468-1.944
		c-0.312-0.552-0.9-0.828-1.764-0.828c-0.601,0-1.158,0.168-1.675,0.504c-0.516,0.336-0.984,0.78-1.403,1.332
		c-0.421,0.552-0.78,1.194-1.08,1.926c-0.301,0.732-0.522,1.506-0.666,2.322l-1.8,10.296h-2.341l2.341-13.32
		c0.023-0.216,0.071-0.534,0.144-0.954s0.138-0.864,0.198-1.332c0.06-0.468,0.119-0.912,0.18-1.332
		c0.06-0.419,0.102-0.726,0.126-0.918h2.304c-0.048,0.384-0.12,0.9-0.216,1.548s-0.192,1.26-0.288,1.836h0.072
		c0.216-0.527,0.491-1.031,0.828-1.512c0.336-0.48,0.72-0.906,1.152-1.278c0.432-0.372,0.899-0.666,1.403-0.882
		s1.044-0.324,1.62-0.324c0.696,0,1.284,0.126,1.764,0.378c0.48,0.252,0.864,0.582,1.152,0.99c0.288,0.409,0.498,0.876,0.63,1.404
		S674.703,92.439,674.703,92.967z"/>
	<path d="M700.299,87.315c0,1.296-0.181,2.46-0.54,3.492c-0.36,1.032-0.87,1.908-1.53,2.628c-0.66,0.72-1.452,1.272-2.376,1.656
		c-0.925,0.384-1.938,0.576-3.042,0.576h-3.708l-1.98,11.412h-2.412l4.429-25.488h5.436c0.815,0,1.572,0.114,2.269,0.342
		c0.695,0.229,1.301,0.582,1.817,1.062c0.516,0.48,0.918,1.08,1.206,1.8C700.154,85.515,700.299,86.355,700.299,87.315z
		 M697.887,87.567c0-1.224-0.307-2.178-0.918-2.862c-0.612-0.684-1.53-1.026-2.754-1.026h-3.061l-1.692,9.9h3.312
		c1.535,0,2.771-0.534,3.708-1.602C697.418,90.91,697.887,89.439,697.887,87.567z"/>
	<path d="M712.646,94.407c0,0.456-0.03,1.002-0.09,1.638c-0.06,0.636-0.185,1.506-0.376,2.61h-9.434
		c-0.145,0.84-0.217,1.656-0.217,2.448c0,1.344,0.252,2.412,0.757,3.204c0.504,0.792,1.271,1.188,2.304,1.188
		c0.84,0,1.565-0.264,2.178-0.792c0.612-0.528,1.122-1.164,1.53-1.908l1.691,1.08c-0.624,1.08-1.392,1.986-2.304,2.718
		c-0.912,0.731-2.028,1.098-3.348,1.098c-1.656,0-2.94-0.57-3.853-1.71s-1.367-2.729-1.367-4.77c0-1.463,0.18-2.939,0.54-4.428
		c0.359-1.488,0.882-2.838,1.565-4.05c0.685-1.211,1.512-2.202,2.484-2.97c0.972-0.768,2.069-1.152,3.294-1.152
		c0.84,0,1.554,0.144,2.142,0.432s1.067,0.696,1.44,1.224c0.371,0.528,0.642,1.146,0.81,1.854
		C712.562,92.829,712.646,93.591,712.646,94.407z M710.45,94.479c0-1.128-0.211-2.04-0.631-2.736
		c-0.42-0.696-1.086-1.044-1.998-1.044c-0.696,0-1.308,0.21-1.836,0.63c-0.527,0.42-0.989,0.942-1.386,1.566
		c-0.396,0.625-0.72,1.284-0.972,1.98c-0.252,0.696-0.427,1.309-0.522,1.836h7.092c0.072-0.456,0.132-0.857,0.181-1.206
		C710.426,95.158,710.45,94.815,710.45,94.479z"/>
	<path d="M726.146,107.079h-2.268l0.575-3.276h-0.035c-0.48,1.104-1.123,2.028-1.927,2.772s-1.817,1.116-3.042,1.116
		c-1.464,0-2.544-0.582-3.239-1.746c-0.696-1.164-1.044-2.694-1.044-4.59c0-1.44,0.167-2.916,0.504-4.428
		c0.336-1.512,0.828-2.886,1.476-4.122c0.648-1.236,1.44-2.244,2.376-3.024c0.937-0.78,1.992-1.17,3.168-1.17
		c1.128,0,1.998,0.342,2.61,1.026c0.611,0.684,0.966,1.566,1.062,2.646h0.072l2.16-12.42h2.304L726.146,107.079z M725.715,95.296
		c0-1.365-0.222-2.472-0.663-3.322c-0.442-0.85-1.142-1.275-2.097-1.275c-0.86,0-1.625,0.348-2.294,1.042
		c-0.67,0.694-1.23,1.562-1.685,2.604c-0.455,1.042-0.801,2.179-1.04,3.412c-0.238,1.233-0.358,2.376-0.358,3.429
		c0,1.317,0.222,2.382,0.664,3.196c0.441,0.814,1.141,1.221,2.096,1.221c0.836,0,1.583-0.341,2.24-1.023
		c0.657-0.683,1.219-1.532,1.685-2.55s0.824-2.131,1.075-3.34S725.715,96.35,725.715,95.296z"/>
	<path d="M744.254,94.407c0,0.456-0.03,1.002-0.09,1.638c-0.06,0.636-0.185,1.506-0.376,2.61h-9.434
		c-0.145,0.84-0.217,1.656-0.217,2.448c0,1.344,0.252,2.412,0.757,3.204c0.504,0.792,1.271,1.188,2.304,1.188
		c0.84,0,1.565-0.264,2.178-0.792c0.612-0.528,1.122-1.164,1.53-1.908l1.691,1.08c-0.624,1.08-1.392,1.986-2.304,2.718
		c-0.912,0.731-2.028,1.098-3.348,1.098c-1.656,0-2.94-0.57-3.853-1.71s-1.367-2.729-1.367-4.77c0-1.463,0.18-2.939,0.54-4.428
		c0.359-1.488,0.882-2.838,1.565-4.05c0.685-1.211,1.512-2.202,2.484-2.97c0.972-0.768,2.069-1.152,3.294-1.152
		c0.84,0,1.554,0.144,2.142,0.432s1.067,0.696,1.44,1.224c0.371,0.528,0.642,1.146,0.81,1.854
		C744.17,92.829,744.254,93.591,744.254,94.407z M742.059,94.479c0-1.128-0.211-2.04-0.631-2.736
		c-0.42-0.696-1.086-1.044-1.998-1.044c-0.696,0-1.308,0.21-1.836,0.63c-0.527,0.42-0.989,0.942-1.386,1.566
		c-0.396,0.625-0.72,1.284-0.972,1.98c-0.252,0.696-0.427,1.309-0.522,1.836h7.092c0.072-0.456,0.132-0.857,0.181-1.206
		C742.034,95.158,742.059,94.815,742.059,94.479z"/>
	<path d="M755.954,91.131c-0.192-0.047-0.385-0.072-0.576-0.072c-0.601,0-1.164,0.204-1.692,0.612
		c-0.527,0.409-1.002,0.936-1.422,1.584c-0.42,0.648-0.78,1.386-1.08,2.214c-0.3,0.828-0.521,1.662-0.666,2.502l-1.584,9.108h-2.376
		l2.341-13.32c0.023-0.216,0.071-0.54,0.144-0.972s0.144-0.882,0.216-1.35c0.072-0.468,0.138-0.906,0.198-1.314
		c0.06-0.408,0.102-0.708,0.126-0.9h2.268c-0.023,0.192-0.06,0.462-0.107,0.81c-0.049,0.348-0.108,0.72-0.181,1.116
		c-0.071,0.396-0.144,0.78-0.216,1.152c-0.071,0.372-0.12,0.666-0.144,0.882h0.107c0.576-1.536,1.29-2.664,2.143-3.384
		c0.852-0.72,1.722-1.08,2.609-1.08c0.192,0,0.324,0.012,0.396,0.036L755.954,91.131z"/>
	<path d="M765.602,91.923c-0.312-0.48-0.702-0.84-1.17-1.08c-0.468-0.24-1.05-0.36-1.746-0.36c-0.888,0-1.644,0.318-2.268,0.954
		c-0.624,0.636-0.937,1.471-0.937,2.502c0,0.792,0.192,1.404,0.576,1.836c0.384,0.432,0.948,0.853,1.692,1.26
		c0.455,0.264,0.882,0.546,1.278,0.846c0.396,0.301,0.749,0.636,1.062,1.008c0.312,0.373,0.558,0.792,0.738,1.26
		c0.18,0.468,0.27,1.002,0.27,1.602c0,0.984-0.162,1.842-0.485,2.574c-0.324,0.732-0.757,1.35-1.297,1.854
		c-0.539,0.504-1.17,0.882-1.89,1.134s-1.476,0.378-2.268,0.378c-1.032,0-1.962-0.222-2.79-0.666s-1.458-1.013-1.891-1.71
		l1.584-1.476c0.336,0.504,0.762,0.942,1.278,1.314c0.516,0.372,1.193,0.558,2.034,0.558c0.936,0,1.739-0.318,2.412-0.954
		c0.671-0.636,1.008-1.518,1.008-2.646c0-0.456-0.078-0.858-0.234-1.206c-0.156-0.348-0.359-0.666-0.611-0.954
		s-0.54-0.54-0.864-0.756c-0.324-0.216-0.654-0.42-0.99-0.612c-0.792-0.408-1.471-0.959-2.034-1.656
		c-0.563-0.696-0.846-1.608-0.846-2.736c0-0.84,0.149-1.602,0.45-2.286c0.3-0.684,0.707-1.272,1.224-1.764
		c0.516-0.492,1.122-0.87,1.818-1.134c0.695-0.264,1.439-0.396,2.231-0.396c0.984,0,1.806,0.168,2.467,0.504
		c0.659,0.336,1.182,0.744,1.565,1.224L765.602,91.923z"/>
	<path d="M780.901,94.407c0,0.456-0.03,1.002-0.09,1.638c-0.06,0.636-0.185,1.506-0.376,2.61h-9.434
		c-0.145,0.84-0.217,1.656-0.217,2.448c0,1.344,0.252,2.412,0.757,3.204c0.504,0.792,1.271,1.188,2.304,1.188
		c0.84,0,1.565-0.264,2.178-0.792c0.612-0.528,1.122-1.164,1.53-1.908l1.691,1.08c-0.624,1.08-1.392,1.986-2.304,2.718
		c-0.912,0.731-2.028,1.098-3.348,1.098c-1.656,0-2.94-0.57-3.853-1.71s-1.367-2.729-1.367-4.77c0-1.463,0.18-2.939,0.54-4.428
		c0.359-1.488,0.882-2.838,1.565-4.05c0.685-1.211,1.512-2.202,2.484-2.97c0.972-0.768,2.069-1.152,3.294-1.152
		c0.84,0,1.554,0.144,2.142,0.432s1.067,0.696,1.44,1.224c0.371,0.528,0.642,1.146,0.81,1.854
		C780.817,92.829,780.901,93.591,780.901,94.407z M778.706,94.479c0-1.128-0.211-2.04-0.631-2.736
		c-0.42-0.696-1.086-1.044-1.998-1.044c-0.696,0-1.308,0.21-1.836,0.63c-0.527,0.42-0.989,0.942-1.386,1.566
		c-0.396,0.625-0.72,1.284-0.972,1.98c-0.252,0.696-0.427,1.309-0.522,1.836h7.092c0.072-0.456,0.132-0.857,0.181-1.206
		C778.682,95.158,778.706,94.815,778.706,94.479z"/>
	<path d="M796.813,92.967c0,0.336-0.03,0.738-0.09,1.206c-0.061,0.468-0.126,0.93-0.198,1.386l-1.979,11.52h-2.341l1.98-11.52
		c0.048-0.336,0.096-0.684,0.144-1.044s0.072-0.708,0.072-1.044c0-0.744-0.156-1.392-0.468-1.944
		c-0.312-0.552-0.9-0.828-1.764-0.828c-0.601,0-1.158,0.168-1.675,0.504c-0.516,0.336-0.984,0.78-1.403,1.332
		c-0.421,0.552-0.78,1.194-1.08,1.926c-0.301,0.732-0.522,1.506-0.666,2.322l-1.8,10.296h-2.341l2.341-13.32
		c0.023-0.216,0.071-0.534,0.144-0.954s0.138-0.864,0.198-1.332c0.06-0.468,0.119-0.912,0.18-1.332
		c0.06-0.419,0.102-0.726,0.126-0.918h2.304c-0.048,0.384-0.12,0.9-0.216,1.548s-0.192,1.26-0.288,1.836h0.072
		c0.216-0.527,0.491-1.031,0.828-1.512c0.336-0.48,0.72-0.906,1.152-1.278c0.432-0.372,0.899-0.666,1.403-0.882
		s1.044-0.324,1.62-0.324c0.696,0,1.284,0.126,1.764,0.378c0.48,0.252,0.864,0.582,1.152,0.99c0.288,0.409,0.498,0.876,0.63,1.404
		S796.813,92.439,796.813,92.967z"/>
</g>
</svg>
