<?xml version="1.0" encoding="utf-8"?>
<!-- Generator: Adobe Illustrator 15.0.2, SVG Export Plug-In . SVG Version: 6.00 Build 0)  -->
<!DOCTYPE svg PUBLIC "-//W3C//DTD SVG 1.1//EN" "http://www.w3.org/Graphics/SVG/1.1/DTD/svg11.dtd">
<svg version="1.1" id="Layer_1" xmlns="http://www.w3.org/2000/svg" xmlns:xlink="http://www.w3.org/1999/xlink" x="0px" y="0px"
	 width="928px" height="1000px" viewBox="0 0 928 1000" enable-background="new 0 0 928 1000" xml:space="preserve">
<path fill="#228B22" stroke="#1D1D1B" stroke-width="20" stroke-miterlimit="10" d="M799,723.5c30.666,0,57,11,79,33
	s33,48.167,33,78.5c0,30.334-11,56.5-33,78.5s-48.167,33-78.5,33c-30.334,0-56.5-11-78.5-33s-33-48.333-33-79c0-12,2.666-25,8-39
	l-169-122c-32.667,33.334-72,50-118,50S323.5,707,290.5,674S241,601.5,241,555.5c0-6,1-14.666,3-26l-134-44
	c-10.667,9.334-22.667,14-36,14c-16,0-29.334-5.5-40-16.5c-10.667-11-16-24.166-16-39.5c0-15.333,5.333-28.333,16-39
	c10.666-10.666,24-16,40-16c13.333,0,24.666,4.167,34,12.5c9.333,8.334,15.666,18.834,19,31.5l135,45c14-27.333,34.166-49,60.5-65
	c26.333-16,55.166-24,86.5-24c34.666,0,66.666,10.334,96,31l199-199c-10.667-20-16-38.333-16-55c0-30.666,11-57,33-79
	s48.166-33,78.5-33c30.333,0,56.5,11,78.5,33s33,48.167,33,78.5c0,30.334-11,56.5-33,78.5s-48.334,33-79,33
	c-17.334,0-35.667-5.666-55-17l-199,200c20.666,29.334,31,61.334,31,96c0,24.667-5.667,49-17,73l169,121
	C750,732.167,773.666,723.5,799,723.5z"/>
</svg>
